<?xml version="1.0" standalone="no"?>
<!DOCTYPE svg PUBLIC "-//W3C//DTD SVG 1.1//EN" "http://www.w3.org/Graphics/SVG/1.1/DTD/svg11.dtd" >
<svg xmlns="http://www.w3.org/2000/svg" xmlns:xlink="http://www.w3.org/1999/xlink" version="1.1">
<metadata>
Created by FontForge 20170924 at Sat Apr  3 13:51:00 1993
 By www-data
Footlight (c) The Monotype Corporation plc. Data (c) The Monotype Corporation plc/Type Solutions Inc. 1990 - 1992 All rights reserved.
</metadata>
<defs>
<font id="FootlightMTLight" horiz-adv-x="1131" >
  <font-face 
    font-family="Footlight MT Light"
    font-weight="300"
    font-stretch="normal"
    units-per-em="2048"
    panose-1="2 4 6 2 6 3 10 2 3 4"
    ascent="1638"
    descent="-410"
    x-height="916"
    cap-height="1279"
    bbox="-360 -460 2060 1869"
    underline-thickness="102"
    underline-position="-256"
    unicode-range="U+0020-F002"
  />
<missing-glyph horiz-adv-x="1536" 
d="M256 0v1280h1024v-1280h-1024zM288 32h960v1216h-960v-1216z" />
    <glyph glyph-name=".notdef" horiz-adv-x="1536" 
d="M256 0v1280h1024v-1280h-1024zM288 32h960v1216h-960v-1216z" />
    <glyph glyph-name="glyph1" horiz-adv-x="0" 
 />
    <glyph glyph-name="glyph2" horiz-adv-x="512" 
 />
    <glyph glyph-name="space" unicode=" " horiz-adv-x="512" 
 />
    <glyph glyph-name="exclam" unicode="!" horiz-adv-x="619" 
d="M60 1279h509v-48q-89 -2 -118 -31t-34 -136l-40 -756h-141l-26 756q-3 105 -36 135.5t-114 31.5v48zM300 213q53 0 88 -36t35 -85t-35.5 -85t-85.5 -36t-85 36t-35 85q0 51 36 86t82 35z" />
    <glyph glyph-name="quotedbl" unicode="&#x22;" horiz-adv-x="661" 
d="M207 778h-39l-49 325q-12 80 -12 110q0 36 21.5 65.5t63.5 29.5q38 0 59.5 -28.5t21.5 -66.5q0 -47 -12 -114zM537 778h-39l-49 325q-12 80 -12 110q0 36 21.5 65.5t62.5 29.5q38 0 60 -28.5t22 -66.5q0 -47 -12 -114z" />
    <glyph glyph-name="numbersign" unicode="#" horiz-adv-x="1365" 
d="M91 945h329l88 411h104l-88 -411h440l86 411h104l-86 -411h205v-104h-225l-81 -389h306v-104h-327l-87 -409h-104l87 409h-443l-85 -409h-104l85 409h-204v104h226l82 389h-308v104zM503 841l-82 -387h442l81 387h-441z" />
    <glyph glyph-name="dollar" unicode="$" horiz-adv-x="939" 
d="M475 1462h72v-155h39q85 1 230 -49v-312h-69q-30 249 -200 291v-481q48 -37 109 -78q156 -105 190.5 -169t34.5 -133q0 -125 -96 -228.5t-238 -161.5v-168h-72v156l-63 -2q-134 0 -296 68v352h67q42 -335 292 -352v540q-244 159 -287.5 231.5t-43.5 144.5
q0 115 100.5 213t230.5 129v164zM475 805v435q-78 -7 -129.5 -56.5t-51.5 -126.5q0 -68 45.5 -131t135.5 -121zM547 527v-479q177 44 177 221q0 74 -44 138.5t-133 119.5z" />
    <glyph glyph-name="percent" unicode="%" horiz-adv-x="1472" 
d="M1137 1335h85l-887 -1396h-85zM417 1295q119 0 195.5 -85t76.5 -221q0 -156 -100 -269t-238 -113q-116 0 -191.5 84.5t-75.5 215.5q0 160 100.5 274t232.5 114zM357 1229q-73 0 -114 -58t-41 -157q0 -132 60.5 -237.5t156.5 -105.5q73 0 112 61t39 165q0 125 -60.5 228.5
t-152.5 103.5zM1118 670q123 0 197 -88t74 -217q0 -158 -98 -271.5t-235 -113.5q-123 0 -197.5 87.5t-74.5 210.5q0 152 94 272t240 120zM1057 604q-76 0 -114.5 -61t-38.5 -148q0 -130 59 -238t151 -108q78 0 118.5 60t40.5 156q0 142 -65 240.5t-151 98.5z" />
    <glyph glyph-name="ampersand" unicode="&#x26;" horiz-adv-x="1301" 
d="M406 711q-109 206 -109 322q0 138 137.5 206.5t270.5 68.5q90 0 158 -43.5t68 -126.5q0 -59 -40.5 -113t-189.5 -148q-77 -49 -124 -83q142 -229 213 -336q93 144 120 336h358v-51q-248 0 -444 -329q202 -271 293 -271q62 0 159 159l42 -20q-102 -193 -161 -252t-106 -59
q-118 0 -342 278q-131 -166 -210.5 -222t-162.5 -56q-110 0 -187 87t-77 197q0 201 334 456zM556 835q128 118 168.5 177.5t40.5 121.5q0 50 -35.5 85t-98.5 35q-74 0 -118 -49t-44 -121q0 -84 87 -249zM426 671q-164 -170 -164 -331q0 -96 50.5 -157.5t126.5 -61.5
q110 0 242 164q-166 224 -255 386z" />
    <glyph glyph-name="quotesingle" unicode="'" horiz-adv-x="320" 
d="M201 778h-39l-49 325q-12 80 -12 110q0 36 21.5 65.5t63.5 29.5q38 0 59.5 -28.5t21.5 -66.5q0 -47 -12 -114z" />
    <glyph glyph-name="parenleft" unicode="(" horiz-adv-x="725" 
d="M676 1413v-61q-146 -159 -206 -323t-60 -434q0 -276 60.5 -442.5t205.5 -322.5v-61q-470 319 -470 821q0 194 54.5 332t159 263t256.5 228z" />
    <glyph glyph-name="parenright" unicode=")" horiz-adv-x="725" 
d="M48 1350v61q132 -86 229.5 -198t169 -257t71.5 -360q0 -284 -134 -490t-336 -339v62q154 168 210 338t56 432t-59 426.5t-207 324.5z" />
    <glyph glyph-name="asterisk" unicode="*" horiz-adv-x="725" 
d="M91 1234q0 52 51 52q32 0 100 -72q61 -65 85 -65q18 0 18 20q0 31 -22 117q-16 60 -16 78q0 19 15.5 35.5t38.5 16.5q53 0 53 -56q0 -16 -18 -89q-21 -83 -21 -104q0 -19 18 -19q24 0 78 58q73 78 111 78q51 0 51 -52q0 -29 -29 -45t-107 -36q-86 -22 -86 -43
q0 -23 98 -48q73 -19 98.5 -34.5t25.5 -41.5q0 -21 -14.5 -37.5t-36.5 -16.5q-36 0 -107 76q-61 65 -84 65q-16 0 -16 -23q0 -28 20 -107q16 -65 16 -84q0 -20 -14.5 -37t-37.5 -17t-38.5 17t-15.5 34q0 24 24 110q18 68 18 85q0 22 -16 22q-22 0 -84 -63q-76 -76 -109 -76
q-50 0 -50 50q0 31 27 46t98 33q98 25 98 47q0 23 -105 50q-70 19 -92.5 33t-22.5 43z" />
    <glyph glyph-name="plus" unicode="+" horiz-adv-x="1365" 
d="M142 697h486v486h108v-486h486v-108h-486v-486h-108v486h-486v108z" />
    <glyph glyph-name="comma" unicode="," horiz-adv-x="491" 
d="M122 -446v57q94 56 159.5 150.5t65.5 184.5q0 51 -29 102q-17 -24 -40 -36t-52 -12q-45 0 -73 29t-28 71q0 52 42.5 86t110.5 34q83 0 131.5 -50t48.5 -132q0 -131 -88.5 -261t-247.5 -223z" />
    <glyph glyph-name="hyphen" unicode="-" horiz-adv-x="832" 
d="M674 557l40 -22q-78 -145 -163 -145q-44 0 -159 35q-97 29 -128 29q-55 0 -99 -74l-39 22q74 147 160 147q39 0 145 -33q105 -32 142 -32q53 0 101 73z" />
    <glyph glyph-name="hyphen" unicode="&#xad;" horiz-adv-x="832" 
d="M674 557l40 -22q-78 -145 -163 -145q-44 0 -159 35q-97 29 -128 29q-55 0 -99 -74l-39 22q74 147 160 147q39 0 145 -33q105 -32 142 -32q53 0 101 73z" />
    <glyph glyph-name="period" unicode="." horiz-adv-x="491" 
d="M246 209q53 0 88 -35.5t35 -83.5q0 -49 -35.5 -84t-85.5 -35q-49 0 -84.5 35t-35.5 84q0 51 36.5 85t81.5 34z" />
    <glyph glyph-name="slash" unicode="/" horiz-adv-x="1045" 
d="M821 1426h110l-708 -1463h-110z" />
    <glyph glyph-name="zero" unicode="0" 
d="M615 1315q182 0 310.5 -154.5t128.5 -414.5q0 -326 -177.5 -550.5t-377.5 -224.5q-107 0 -209.5 70t-157 194t-54.5 298q0 330 174.5 556t362.5 226zM526 1205q-152 0 -231 -146.5t-79 -371.5q0 -246 116.5 -422.5t272.5 -176.5q134 0 218.5 129.5t84.5 373.5
q0 171 -51 314t-148.5 221.5t-182.5 78.5z" />
    <glyph glyph-name="one" unicode="1" 
d="M288 1155l487 170v-40q-32 -9 -57.5 -39.5t-25.5 -76.5v-977q0 -74 30.5 -109t104.5 -35h49v-48h-528v48h49q133 0 133 127v890q0 87 -76 87q-35 0 -166 -46v49z" />
    <glyph glyph-name="two" unicode="2" 
d="M219 1159q121 75 233.5 112t216.5 37q137 0 225.5 -68.5t88.5 -182.5q0 -102 -60 -198.5t-252 -283.5l-425 -420h564q87 0 125 38.5t51 113.5h48l-72 -354h-47v12q0 35 -36 35h-781v48l292 352q67 80 196 252.5t166 264.5t37 154q0 74 -48.5 130t-130.5 56
q-120 0 -214 -117.5t-108 -284.5h-69v304z" />
    <glyph glyph-name="three" unicode="3" 
d="M226 1159q119 75 227 112t205 37q110 0 191.5 -53.5t81.5 -156.5q0 -112 -102.5 -201.5t-316.5 -175.5q70 3 103 3q203 0 304 -63.5t101 -191.5q0 -191 -175.5 -344.5t-384.5 -153.5q-131 0 -297 64v333h69q17 -155 110.5 -240.5t213.5 -85.5q121 0 200.5 85.5
t79.5 224.5q0 153 -83.5 237.5t-240.5 84.5h-165v47q163 17 282 137.5t119 240.5q0 63 -42.5 109.5t-118.5 46.5q-118 0 -202.5 -116t-90.5 -282h-68v302z" />
    <glyph glyph-name="four" unicode="4" 
d="M753 1318h50v-852h204v-101h-204v-190q0 -127 126 -127h29v-48h-502v48h42q141 0 141 127v190h-576v46l393 496q195 247 297 411zM639 995q-136 -129 -250 -273l-202 -256h452v529z" />
    <glyph glyph-name="five" unicode="5" 
d="M915 1330h47v-352h-47q0 99 -43 125t-102 26h-454l-19 -399q65 52 148 78t185 26q175 0 285 -90t110 -236q0 -204 -167.5 -370.5t-380.5 -166.5q-143 0 -279 66v331h70q21 -151 102 -236.5t195 -85.5q129 0 200 97.5t71 248.5q0 171 -83 275.5t-209 104.5
q-79 0 -143 -39.5t-114 -119.5h-59l31 666h595q60 0 61 51z" />
    <glyph glyph-name="six" unicode="6" 
d="M311 507q84 98 178 146.5t198 48.5q149 0 253 -79t104 -235q0 -162 -138.5 -289.5t-329.5 -127.5q-216 0 -333.5 167t-117.5 403q0 295 167.5 531t429.5 236q113 0 235 -49v-344h-74q-2 155 -64.5 247t-161.5 92t-184 -92t-128 -246.5t-43 -281.5q0 -43 9 -127zM617 624
q-116 0 -183 -85.5t-67 -211.5q0 -130 68 -216t174 -86q107 0 175.5 86.5t68.5 217.5q0 134 -68 214.5t-168 80.5z" />
    <glyph glyph-name="seven" unicode="7" 
d="M190 1325h47v-7q0 -39 55 -39h756v-62q-275 -352 -366 -635.5t-99 -581.5h-181q11 233 60.5 396t165 335.5t163.5 232.5l131 164h-530q-93 0 -123 -35.5t-32 -117.5h-47v350z" />
    <glyph glyph-name="eight" unicode="8" 
d="M476 659q-9 5 -58 31q-131 68 -184.5 126t-53.5 156q0 132 143 234t326 102q131 0 228 -57.5t97 -157.5q0 -71 -58 -144t-250 -209q53 -30 97 -52q175 -92 239.5 -160.5t64.5 -166.5q0 -107 -72 -186t-197 -141.5t-290 -62.5q-202 0 -308.5 87t-106.5 204q0 80 57 158.5
t253 194.5q47 28 73 44zM622 765q103 90 145.5 156.5t42.5 138.5q0 88 -65 140t-171 52q-110 0 -177 -59t-67 -143q0 -58 44.5 -122.5t247.5 -162.5zM524 635q-131 -87 -190 -161.5t-59 -172.5q0 -124 89 -197t218 -73q141 0 226.5 83.5t85.5 187.5q0 77 -42 128t-120 90.5
t-208 114.5z" />
    <glyph glyph-name="nine" unicode="9" 
d="M845 769q-92 -95 -188.5 -142.5t-197.5 -47.5q-168 0 -257 95.5t-89 223.5q0 162 143.5 286t319.5 124q197 0 325 -152t128 -421q0 -209 -80 -383t-213.5 -277.5t-296.5 -103.5q-124 0 -237 51v341h72q3 -152 64 -244.5t156 -92.5q157 0 256.5 183.5t99.5 451.5
q0 34 -5 108zM551 1259q-121 0 -186 -91.5t-65 -218.5q0 -132 70.5 -213.5t177.5 -81.5q106 0 172.5 86.5t66.5 214.5q0 141 -73.5 222.5t-162.5 81.5z" />
    <glyph glyph-name="colon" unicode=":" horiz-adv-x="491" 
d="M254 943q53 0 88 -36t35 -85q0 -51 -35.5 -86t-85.5 -35t-85.5 35t-35.5 86t36.5 86t82.5 35zM246 210q54 0 88.5 -35.5t34.5 -83.5q0 -50 -35 -85t-86 -35q-50 0 -85.5 35t-35.5 85q0 52 36.5 85.5t82.5 33.5z" />
    <glyph glyph-name="semicolon" unicode=";" horiz-adv-x="491" 
d="M246 941q53 0 88 -36t35 -85q0 -50 -35.5 -85.5t-85.5 -35.5t-85.5 35.5t-35.5 85.5q0 52 36.5 86.5t82.5 34.5zM124 -447v58q111 80 166.5 165t55.5 175q0 44 -31 97q-16 -24 -39 -36t-53 -12q-49 0 -73.5 31t-24.5 67q0 51 42.5 87t109.5 36q81 0 131 -50.5t50 -136.5
q0 -133 -83.5 -253t-250.5 -228z" />
    <glyph glyph-name="less" unicode="&#x3c;" horiz-adv-x="1365" 
d="M1222 141l-1080 456v97l1080 455v-118l-936 -385l936 -387v-118z" />
    <glyph glyph-name="equal" unicode="=" horiz-adv-x="1365" 
d="M142 935h1080v-108h-1080v108zM142 469h1080v-108h-1080v108z" />
    <glyph glyph-name="greater" unicode="&#x3e;" horiz-adv-x="1365" 
d="M142 1149l1080 -457v-97l-1080 -454v117l937 386l-937 387v118z" />
    <glyph glyph-name="question" unicode="?" horiz-adv-x="917" 
d="M95 1156q277 152 498 152q141 0 217.5 -60.5t76.5 -163.5q0 -154 -190 -324q-112 -100 -163 -174t-68 -134.5t-19 -143.5h-99q2 153 36 246.5t139 234.5q84 114 113.5 175t29.5 116q0 77 -49 123t-131 46q-128 0 -222 -112.5t-103 -282.5h-66v302zM394 213q52 0 87 -35.5
t35 -85.5t-35.5 -85.5t-84.5 -35.5t-84.5 35.5t-35.5 85.5q0 52 36.5 86.5t81.5 34.5z" />
    <glyph glyph-name="at" unicode="@" horiz-adv-x="1877" 
d="M1396 951l-139 -469q-74 -248 -74 -316q0 -41 29.5 -61.5t63.5 -20.5q140 0 283.5 192.5t143.5 454.5q0 291 -184 464.5t-472 173.5q-238 0 -440.5 -127t-313 -363.5t-110.5 -480.5q0 -211 104.5 -403.5t288.5 -290t400 -97.5q285 0 503 161t304 396h54
q-93 -270 -330 -440t-533 -170q-250 0 -455.5 117t-311 327.5t-105.5 454.5q0 398 269 682.5t678 284.5q314 0 510 -187.5t196 -496.5q0 -225 -85 -381t-195.5 -247t-258.5 -91q-82 0 -119.5 41t-37.5 99q0 40 25 155q-159 -193 -239 -238.5t-143 -45.5q-83 0 -138.5 59.5
t-55.5 170.5q0 169 98.5 331t223.5 265.5t235 103.5q64 0 106.5 -35t62.5 -106l31 115zM774 135q83 0 189.5 103.5t170 256.5t63.5 262q0 62 -33 108.5t-104 46.5q-139 0 -275.5 -226t-136.5 -409q0 -64 33.5 -103t92.5 -39z" />
    <glyph glyph-name="A" unicode="A" horiz-adv-x="1237" 
d="M623 1332h59l354 -1022q39 -114 85.5 -186.5t113.5 -75.5v-48h-359v48h23q17 0 17 33q0 10 -4 22l-120 348h-437q-69 -194 -69 -289q0 -50 32.5 -82t85.5 -32h53v-48h-448v48q112 6 204 239zM588 1044l-210 -532h392z" />
    <glyph glyph-name="B" unicode="B" horiz-adv-x="1109" 
d="M58 1279h605q196 0 256.5 -65t60.5 -161q0 -102 -70.5 -195.5t-212.5 -177.5q174 -2 258 -51.5t84 -178.5q0 -179 -155 -314.5t-357 -135.5h-469v48q88 1 120 34t32 125v866q0 97 -34 126.5t-118 31.5v48zM395 1184v-465h195q93 0 152 49t59 151q0 138 -71.5 225.5
t-176.5 87.5q-99 0 -158 -48zM395 673v-527q103 -81 215 -81q107 0 172 71.5t65 191.5q0 145 -90.5 245t-259.5 100h-102z" />
    <glyph glyph-name="C" unicode="C" horiz-adv-x="1259" 
d="M1206 244q-317 -273 -578 -273q-213 0 -382.5 162.5t-169.5 447.5q0 199 88 356t249.5 264t388.5 107q198 0 374 -62v-302h-71q-13 142 -125 221.5t-267 79.5q-217 0 -341 -159t-124 -390q0 -250 141 -415t362 -165t455 189v-61z" />
    <glyph glyph-name="D" unicode="D" horiz-adv-x="1451" 
d="M64 1279h786q264 0 395.5 -126t131.5 -379q0 -322 -213.5 -548t-575.5 -226h-524v48q90 1 121 34.5t31 124.5v866q0 97 -34 126.5t-118 31.5v48zM401 1157v-999q160 -93 312 -93q214 0 345 161t131 418q0 258 -114.5 424t-383.5 166q-175 0 -290 -77z" />
    <glyph glyph-name="E" unicode="E" horiz-adv-x="981" 
d="M845 1329h47v-382h-73q-2 150 -86 217t-256 67h-76q-12 -109 -12 -195q0 -171 66.5 -252t214.5 -81h98v-70l-367 -10v-575h106q336 0 385 320h71l-82 -412h-50q-1 44 -38 44h-729v48q90 1 121 34t31 125v865q0 98 -34.5 127.5t-117.5 31.5v48h714q65 0 67 50z" />
    <glyph glyph-name="F" unicode="F" horiz-adv-x="875" 
d="M846 1323h44v-380h-72q0 156 -86.5 222t-257.5 66h-76q-11 -109 -11 -196q0 -191 66 -274t230 -83h83v-69l-368 -8v-394q0 -154 152 -159v-48h-489v48q89 1 120.5 34.5t31.5 124.5v866q0 97 -34 126.5t-118 31.5v48h757q7 0 16.5 13.5t11.5 30.5z" />
    <glyph glyph-name="G" unicode="G" horiz-adv-x="1365" 
d="M848 48q-135 -77 -254 -77q-129 0 -255 80.5t-192 214.5t-66 302q0 210 100 381t264 265t370 94q160 0 363 -61v-303h-73q-17 143 -126 220.5t-257 77.5q-196 0 -333.5 -141t-137.5 -388q0 -264 140 -438.5t339 -174.5q131 0 219 74t88 178q0 151 -189 151h-36v47h499
v-47q-47 -1 -74 -41t-27 -96v-412h-50q-5 176 -133 176q-58 0 -139 -56q-23 -15 -40 -26z" />
    <glyph glyph-name="H" unicode="H" horiz-adv-x="1408" 
d="M61 1279h489v-48q-90 -2 -121 -35t-31 -123v-343h610v343q0 97 -34.5 126.5t-117.5 31.5v48h489v-48q-90 -2 -121 -35t-31 -123v-866q0 -98 34.5 -128t117.5 -31v-48h-489v48q88 1 120 34.5t32 124.5v461h-610v-461q0 -155 152 -159v-48h-489v48q89 1 120.5 34.5
t31.5 124.5v866q0 97 -34.5 126.5t-117.5 31.5v48z" />
    <glyph glyph-name="I" unicode="I" horiz-adv-x="619" 
d="M562 1231q-90 -2 -121 -34.5t-31 -123.5v-866q0 -154 152 -159v-48h-489v48q90 1 121 34.5t31 124.5v866q0 97 -34 126.5t-118 31.5v48h489v-48z" />
    <glyph glyph-name="J" unicode="J" horiz-adv-x="597" 
d="M-80 -117q8 -100 49 -157.5t99 -57.5q68 0 109.5 78.5t41.5 253.5v1072q0 98 -34 127.5t-118 31.5v48h489v-48q-89 -2 -120.5 -35t-31.5 -124v-839q0 -167 -66 -319.5t-169.5 -259t-213.5 -106.5q-46 0 -105 18v317h70z" />
    <glyph glyph-name="K" unicode="K" horiz-adv-x="1195" 
d="M59 1279h489v-48q-90 -2 -121 -34.5t-31 -124.5v-404l247 242q59 58 111.5 132.5t52.5 121.5q0 64 -103 67v48h460v-48q-130 -16 -278 -159l-324 -313l351 -469q180 -242 309 -242v-48h-323l-503 675v-468q0 -154 152 -159v-48h-489v48q90 1 121 34.5t31 124.5v865
q0 98 -34 127.5t-118 31.5v48z" />
    <glyph glyph-name="L" unicode="L" horiz-adv-x="960" 
d="M65 1279h491v-48q-91 -2 -122 -34t-31 -125v-1024h130q303 0 360 318h72l-86 -413h-47q-1 47 -43 47h-724v48q89 1 120.5 34.5t31.5 124.5v865q0 97 -34 127t-118 32v48z" />
    <glyph glyph-name="M" unicode="M" horiz-adv-x="1813" 
d="M159 1279h327l429 -1058l246 581q139 328 183 477h357v-48q-87 -2 -121.5 -29t-34.5 -99q0 -10 1 -23l76 -798q14 -147 46.5 -189t131.5 -45v-48h-492v48q75 2 106 30t31 109q0 16 -2 34l-78 795q-171 -304 -244 -475l-251 -588h-45l-468 1164l-34 -359
q-23 -243 -23 -385q0 -316 158 -325v-48h-452v48q70 16 111 89.5t84.5 262t63.5 402.5l25 266q1 19 1 41q0 71 -28 95.5t-104 26.5v48z" />
    <glyph glyph-name="N" unicode="N" horiz-adv-x="1387" 
d="M66 1279h328l727 -977v297q0 286 -43.5 454t-138.5 178v48h437v-48q-183 -17 -183 -601v-676h-47l-863 1166v-372q0 -353 43.5 -520.5t141.5 -179.5v-48h-434v48q182 28 182 689v345q0 89 -34.5 118t-115.5 31v48z" />
    <glyph glyph-name="O" unicode="O" horiz-adv-x="1493" 
d="M798 1308q168 0 297 -66t226 -206t97 -336q0 -213 -120.5 -389.5t-281 -258t-336.5 -81.5q-252 0 -428 173.5t-176 430.5q0 297 220 515t502 218zM673 1215q-185 0 -306.5 -129.5t-121.5 -342.5q0 -313 182.5 -498t399.5 -185q173 0 297.5 130t124.5 334q0 191 -83 358.5
t-226 250t-267 82.5z" />
    <glyph glyph-name="P" unicode="P" horiz-adv-x="981" 
d="M59 1279h633q165 0 242 -63.5t77 -165.5q0 -163 -151.5 -308.5t-311.5 -145.5q-35 0 -73 9.5t-79 27.5v-426q0 -154 152 -159v-48h-489v48q90 1 121 34t31 125v866q0 97 -34 126.5t-118 31.5v48zM396 1166v-399q64 -48 121.5 -72t107.5 -24q94 0 141 63t47 189
q0 130 -60.5 218.5t-175.5 88.5q-93 0 -181 -64z" />
    <glyph glyph-name="Q" unicode="Q" horiz-adv-x="1493" 
d="M420 41q-161 67 -250 214t-89 327q0 205 101.5 363t262.5 260.5t362 102.5q174 0 305.5 -73t219 -208.5t87.5 -322.5q0 -273 -178 -469t-411 -243q75 -18 220 -139q149 -123 219 -123q45 0 89 30t124 108v-64q-108 -123 -168 -170.5t-122 -47.5q-43 0 -99.5 29
t-193.5 143q-60 49 -173 132.5t-141.5 96.5t-56.5 13q-78 0 -208 -132v62q47 66 100 111zM676 1221q-187 0 -308 -136t-121 -339q0 -196 77.5 -342t210.5 -242t294 -96q178 0 302 132.5t124 334.5q0 188 -86.5 353t-225.5 250t-267 85z" />
    <glyph glyph-name="R" unicode="R" horiz-adv-x="1109" 
d="M56 1279h636q142 0 212.5 -55t70.5 -165q0 -123 -79.5 -229.5t-238.5 -197.5l223 -345q150 -232 277 -239v-48h-240q-72 0 -128 86l-396 616v-495q0 -154 154 -159v-48h-491v48q90 1 121 34.5t31 124.5v866q0 97 -34 126.5t-118 31.5v48zM393 1182v-417q117 -85 201 -85
q88 0 132 59.5t44 177.5q0 144 -65 229.5t-158 85.5q-82 0 -154 -50z" />
    <glyph glyph-name="S" unicode="S" horiz-adv-x="917" 
d="M220 749q-46 44 -69.5 94t-23.5 105q0 144 132 252t309 108q89 0 237 -51v-314h-73q-8 131 -80 214t-176 83q-85 0 -140.5 -52.5t-55.5 -132.5q0 -77 55 -144q54 -67 261 -206q157 -105 212 -170q54 -66 54 -162q0 -157 -144.5 -279.5t-327.5 -122.5q-131 0 -294 63v360
h71q0 -152 88 -254t209 -102q111 0 175.5 65t64.5 165q0 87 -53 153q-53 65 -241 190q-103 68 -190 138z" />
    <glyph glyph-name="T" unicode="T" horiz-adv-x="1067" 
d="M22 1324h44q13 -45 39 -45h874q34 0 34 45h48v-380h-71q-3 287 -304 287h-54v-1024q0 -155 152 -159v-48h-489v48q90 1 121 34.5t31 124.5v1024h-69q-277 0 -286 -287h-70v380z" />
    <glyph glyph-name="U" unicode="U" horiz-adv-x="1387" 
d="M925 1279h441v-48q-187 -28 -187 -625q0 -207 -8.5 -295.5t-60.5 -166t-159 -125.5t-257 -48q-157 0 -267.5 46t-169 132.5t-58.5 212.5v710q0 98 -34.5 127.5t-117.5 31.5v48h489v-48q-89 -2 -120.5 -34.5t-31.5 -124.5v-702q0 -100 31 -165.5t114.5 -118t207.5 -52.5
t209.5 45t124 134.5t38.5 269.5q0 395 -41.5 567t-142.5 181v48z" />
    <glyph glyph-name="V" unicode="V" horiz-adv-x="1259" 
d="M38 1279h354v-48q-39 -1 -39 -29q0 -15 11 -48l317 -914l203 515q84 214 84 342q0 67 -33.5 100t-124.5 34v48h449v-48q-109 -1 -207 -247l-408 -1028h-59l-360 1045q-79 228 -187 230v48z" />
    <glyph glyph-name="W" unicode="W" horiz-adv-x="1984" 
d="M56 1279h349v-48q-37 -1 -37 -33q0 -9 4 -20l317 -938l167 420q73 184 73 350q0 212 -168 221v48h354v-48q-43 -1 -43 -32q0 -9 4 -21l321 -938l204 517q94 238 94 339q0 78 -36.5 105.5t-125.5 29.5v48h450v-48q-59 -1 -111 -70t-108 -208l-400 -1000h-60l-290 845
q-97 -173 -158 -327l-204 -518h-58l-337 994q-8 22 -52 122.5t-78.5 129.5t-70.5 32v48z" />
    <glyph glyph-name="X" unicode="X" horiz-adv-x="1237" 
d="M66 1279h390v-48q-40 -2 -40 -25q0 -8 4 -15l240 -400q176 247 176 342q0 45 -29.5 71t-122.5 27v48h479v-48q-136 -20 -292 -230l-187 -255l258 -424l61 -100q30 -49 71.5 -91t72 -58.5t77.5 -24.5v-48h-398v48q40 2 40 31q0 10 -7 21l-288 481q-228 -298 -228 -432
q0 -99 135 -101v-48h-475v48q132 11 294 239l245 343l-222 371q-132 220 -254 230v48z" />
    <glyph glyph-name="Y" unicode="Y" horiz-adv-x="1195" 
d="M35 1279h363v-48q-38 -1 -38 -27q0 -8 4 -18l314 -624q243 380 243 554q0 62 -36.5 88t-126.5 27v48h478v-48q-58 -1 -113 -52t-126 -172l-303 -516v-284q0 -154 152 -159v-48h-489v48q89 1 120.5 34.5t31.5 124.5v284l-250 502q-57 114 -108.5 175.5t-115.5 62.5v48z
" />
    <glyph glyph-name="Z" unicode="Z" horiz-adv-x="1216" 
d="M138 1324h46q2 -45 38 -45h896v-59l-826 -1172h301q255 0 372.5 72.5t152.5 247.5h72l-82 -412h-48q-2 44 -24 44h-958v58l823 1173h-296q-212 0 -301.5 -66.5t-96.5 -220.5h-69v380z" />
    <glyph glyph-name="bracketleft" unicode="[" horiz-adv-x="640" 
d="M214 1415h325v-62h-182v-1521h182v-62h-325v1645z" />
    <glyph glyph-name="backslash" unicode="\" horiz-adv-x="1045" 
d="M113 1426h110l709 -1463h-110z" />
    <glyph glyph-name="bracketright" unicode="]" horiz-adv-x="640" 
d="M135 1413h284v-1643h-284v62h141v1520h-141v61z" />
    <glyph glyph-name="asciicircum" unicode="^" horiz-adv-x="960" 
d="M498 1279l425 -717h-92l-350 586l-350 -586h-94l431 717h30z" />
    <glyph glyph-name="underscore" unicode="_" horiz-adv-x="1024" 
d="M-12 -154h1048v-102h-1048v102z" />
    <glyph glyph-name="grave" unicode="`" horiz-adv-x="683" 
d="M373 1064l-139 156q-46 51 -56 65t-10 32q0 24 17 43t43 19q20 0 32.5 -9t34.5 -54l114 -231z" />
    <glyph glyph-name="a" unicode="a" horiz-adv-x="960" 
d="M155 792q230 152 433 152q95 0 137 -42t41 -142v-625q0 -45 41 -45q40 0 141 92v-62q-152 -149 -248 -149q-86 0 -86 96v148q-125 -128 -211.5 -186t-163.5 -58q-75 0 -128 58.5t-53 142.5q0 217 556 468v120q0 55 -33 91t-91 36q-99 0 -176 -96t-92 -239h-67v240z
M625 559q-185 -38 -300 -130.5t-115 -189.5q0 -62 38.5 -99t100.5 -37q115 0 194.5 121.5t81.5 334.5z" />
    <glyph glyph-name="b" unicode="b" horiz-adv-x="1045" 
d="M332 1411v-41q-28 -16 -28 -53v-685q188 216 265 263.5t157 47.5q128 0 204.5 -101.5t76.5 -258.5q0 -132 -56 -256.5t-145 -204t-168 -101t-196 -21.5h-92q-105 0 -138.5 -14.5t-50.5 -48.5h-67q26 47 41.5 123t15.5 114v985q0 88 -67 88q-31 0 -85 -23v49zM304 156
q122 -75 260 -75q100 0 165.5 52.5t96.5 142.5t31 205q0 149 -58 238t-160 89q-131 0 -239.5 -150t-108.5 -358q0 -64 13 -144z" />
    <glyph glyph-name="c" unicode="c" horiz-adv-x="917" 
d="M842 245q-219 -274 -424 -274q-132 0 -252.5 112t-120.5 319q0 215 146.5 379t351.5 164q125 0 271 -66v-261h-73q-3 119 -75.5 192.5t-181.5 73.5q-138 0 -216.5 -117.5t-78.5 -270.5q0 -166 86 -279t222 -113q83 0 161.5 49t183.5 162v-70z" />
    <glyph glyph-name="d" unicode="d" horiz-adv-x="1067" 
d="M595 1279l346 132v-41q-43 -17 -43 -68v-1118q0 -83 71 -83q32 0 79 22v-51l-255 -100h-47v323q-172 -220 -252.5 -272t-158.5 -52q-131 0 -211 118.5t-80 271.5q0 210 155 396.5t343 186.5q42 0 93 -13t111 -40v269q0 85 -65 85q-34 0 -86 -21v55zM746 758
q-70 58 -137 86.5t-131 28.5q-127 0 -204.5 -131.5t-77.5 -300.5q0 -141 66 -239.5t162 -98.5q136 0 235 178t99 356q0 68 -12 121z" />
    <glyph glyph-name="e" unicode="e" horiz-adv-x="896" 
d="M856 251q-223 -280 -435 -280q-149 0 -263 129.5t-114 307.5q0 205 135.5 369.5t319.5 164.5q148 0 235 -105t92 -256h-645q-2 -39 -2 -57q0 -177 94 -295.5t232 -118.5q172 0 351 207v-66zM662 631q-12 118 -75 183t-149 65q-90 0 -161 -70.5t-87 -177.5h472z" />
    <glyph glyph-name="f" unicode="f" horiz-adv-x="640" 
d="M53 839h44q25 0 58 19.5t60 115.5q54 191 158 292t220 101q37 0 102 -20v-253h-72q-5 184 -123 184q-66 0 -109.5 -70t-43.5 -182q0 -187 173 -187h83v-47h-245v-588q0 -89 37 -121.5t116 -34.5v-48h-458v48q86 2 119.5 38t33.5 118v588h-153v47z" />
    <glyph glyph-name="g" unicode="g" horiz-adv-x="1024" 
d="M518 360q-12 -2 -36 -5q-72 -12 -108 -12q-122 0 -203 66.5t-81 172.5q0 138 136.5 249t302.5 111q43 0 73 -8t112 -41q87 -36 125 -46t90 -10h71v-47h-204q24 -52 24 -95q0 -60 -32 -123t-154 -168q-119 -103 -119 -145q0 -33 43 -59q42 -27 149 -62q154 -51 226 -101
t72 -133q0 -150 -192 -255.5t-433 -105.5q-178 0 -296 62.5t-118 164.5q0 101 132.5 180.5t357.5 123.5q-36 26 -54.5 53.5t-18.5 57.5q0 41 28 77t107 98zM464 882q-101 0 -157 -72t-56 -172q0 -101 56 -172t148 -71q89 0 148.5 70t59.5 175q0 106 -57.5 174t-141.5 68z
M518 48q-205 -52 -308 -117.5t-103 -143.5q0 -70 84.5 -126.5t253.5 -56.5q195 0 307 74t112 169q0 52 -45.5 82t-185.5 78z" />
    <glyph glyph-name="h" unicode="h" 
d="M394 1416v-43q-41 -16 -41 -72v-688q117 166 222 249t198 83q77 0 120 -55q43 -56 43 -164v-522q0 -86 34.5 -120t118.5 -36v-48h-349v48q44 2 44 54v597q0 65 -26.5 97.5t-79.5 32.5q-124 0 -230.5 -181.5t-106.5 -397.5q0 -202 123 -202h40v-48h-454v48q77 2 114 34
t37 122v987q0 59 -66 59q-37 0 -85 -19v48z" />
    <glyph glyph-name="i" unicode="i" horiz-adv-x="555" 
d="M286 1360q43 0 70.5 -28.5t27.5 -67.5t-28 -67t-68 -28q-39 0 -67 27.5t-28 67.5q0 42 29 69t64 27zM59 48q77 2 115 33.5t38 122.5v547q0 63 -72 63q-26 0 -57 -13q-16 -7 -24 -9v51l256 101h49v-740q0 -89 37 -121.5t116 -34.5v-48h-458v48z" />
    <glyph glyph-name="j" unicode="j" horiz-adv-x="533" 
d="M281 1359q42 0 69.5 -28t27.5 -67t-28 -67t-67 -28q-40 0 -67.5 28t-27.5 67q0 40 28.5 67.5t64.5 27.5zM54 838l259 104h45v-867q0 -177 -114 -355t-267 -178q-50 0 -107 23v271h72q1 -99 37.5 -150t89.5 -51t95 67t42 165v849q0 93 -71 93q-34 0 -81 -22v51z" />
    <glyph glyph-name="k" unicode="k" horiz-adv-x="1024" 
d="M355 489v-285l-1 -23q0 -130 154 -133v-48h-457v48q78 2 115 33.5t37 122.5v936q0 107 -72 107q-29 0 -80 -16v48l344 137v-41q-40 -13 -40 -60v-826l175 145l9 10l45 40q75 66 75 122q0 62 -120 64v46h469v-46q-125 -2 -305 -153l-203 -168l197 -250q196 -250 352 -251
v-48h-308z" />
    <glyph glyph-name="l" unicode="l" horiz-adv-x="555" 
d="M408 1375q-43 -21 -43 -73v-1098q0 -88 36.5 -121t116.5 -35v-48h-459v48q82 2 118 36t36 120v951q0 92 -76 92q-32 0 -78 -16v48l349 137v-41z" />
    <glyph glyph-name="m" unicode="m" horiz-adv-x="1643" 
d="M902 647q155 195 233.5 246t154.5 51q71 0 118 -49q46 -49 46 -131v-560q0 -89 36.5 -121.5t116.5 -34.5v-48h-348v48q43 1 43 47v573q0 81 -26.5 121t-79.5 40q-116 0 -211 -170t-95 -390q0 -125 38 -172t126 -49v-48h-345v48q42 2 42 37v615q0 57 -28.5 92t-71.5 35
q-120 0 -214 -169.5t-94 -392.5q0 -122 37 -169.5t125 -47.5v-48h-453v48q81 2 115.5 36t34.5 120v524q0 83 -65 83q-32 0 -85 -22v50l255 102h47v-304q151 202 231 254t155 52q82 0 122.5 -58t40.5 -175q0 -26 -1 -63z" />
    <glyph glyph-name="n" unicode="n" 
d="M52 839l260 106h42v-329q144 192 237 260.5t176 68.5q169 0 169 -217v-524q0 -89 36.5 -121.5t116.5 -34.5v-48h-348v48q42 2 42 49v618q0 52 -27 83.5t-70 31.5q-126 0 -234.5 -178.5t-108.5 -409.5q0 -117 36 -154.5t128 -39.5v-48h-455v48q81 2 116.5 35t35.5 121v511
q0 99 -66 99q-24 0 -86 -25v50z" />
    <glyph glyph-name="o" unicode="o" horiz-adv-x="1003" 
d="M542 942q189 0 302.5 -118.5t113.5 -315.5q0 -234 -158 -385.5t-348 -151.5t-300 120.5t-110 313.5q0 230 156.5 383.5t343.5 153.5zM457 864q-136 0 -208 -97t-72 -243q0 -180 113.5 -321.5t264.5 -141.5q112 0 189.5 93t77.5 243q0 139 -62 249.5t-142 164t-161 53.5z
" />
    <glyph glyph-name="p" unicode="p" horiz-adv-x="1088" 
d="M338 18v-236q0 -88 36 -122.5t119 -35.5v-49h-457v49q84 1 118 37t34 121v956q0 75 -59 75q-21 0 -93 -26v50l257 105h45v-325q142 195 231.5 261t180.5 66q120 0 206.5 -101.5t86.5 -269.5q0 -236 -156.5 -419t-351.5 -183q-45 0 -94.5 12t-102.5 35zM338 146
q70 -57 132 -85.5t116 -28.5q126 0 216 127t90 323q0 153 -58.5 250t-157.5 97q-130 0 -239.5 -169t-109.5 -388q0 -47 11 -126z" />
    <glyph glyph-name="q" unicode="q" horiz-adv-x="1067" 
d="M961 972q-63 -110 -63 -297v-896q0 -85 34.5 -121t118.5 -37v-48h-458v48q83 1 117 37t34 121v500q-165 -189 -257 -248.5t-183 -59.5q-115 0 -187.5 105t-72.5 261q0 180 102 325t214 197.5t285 52.5l96 -1q139 0 167 61h53zM744 763q-134 78 -253 78
q-125 0 -206.5 -116t-81.5 -303q0 -168 66.5 -245t144.5 -77q122 0 232.5 154.5t110.5 378.5q0 57 -13 130z" />
    <glyph glyph-name="r" unicode="r" horiz-adv-x="811" 
d="M51 837l263 107h44v-325q103 176 184 249.5t166 73.5q33 0 79 -15v-308h-71q-1 181 -105 181q-103 0 -183.5 -168.5t-80.5 -381.5q0 -126 46.5 -164t177.5 -38v-48h-520v48q82 2 118 35.5t36 120.5v519q0 88 -65 88q-27 0 -89 -22v48z" />
    <glyph glyph-name="s" unicode="s" horiz-adv-x="747" 
d="M150 308q8 -130 74.5 -202t159.5 -72q77 0 126 47t49 119q0 64 -37 108q-38 43 -149 113q-79 50 -144 93.5t-90 88.5q-26 45 -26 92q0 97 89.5 173t237.5 76q91 0 196 -40v-262h-72q-1 111 -62 178t-140 67q-56 0 -87.5 -35.5t-31.5 -83.5q0 -54 36 -93q35 -40 141 -106
q182 -115 228 -162q46 -48 46 -127q0 -125 -110.5 -217t-254.5 -92q-107 0 -247 60v277h68z" />
    <glyph glyph-name="t" unicode="t" horiz-adv-x="597" 
d="M396 1231v-52q-63 -15 -63 -142q0 -86 14.5 -120t51 -56t97.5 -22h83v-45h-245v-642q0 -31 12.5 -47t37.5 -16q49 0 146 80q11 9 17 13v-58q-170 -153 -271 -153q-47 0 -70.5 36.5t-23.5 108.5v678h-153v45q88 0 125 35t37 123v151z" />
    <glyph glyph-name="u" unicode="u" 
d="M31 880l343 61v-39q-42 -12 -42 -69v-619q0 -61 27 -96t72 -35q115 0 229 173t114 407q0 90 -23.5 134t-83.5 44q-19 0 -57 -8v47l348 61v-39q-44 -7 -44 -69v-643q0 -93 69 -93q41 0 105 30v-49l-276 -110h-49v332q-157 -214 -248.5 -271.5t-169.5 -57.5
q-165 0 -165 234v547q0 87 -93 87q-20 0 -56 -6v47z" />
    <glyph glyph-name="v" unicode="v" horiz-adv-x="981" 
d="M13 916h322v-48q-38 0 -38 -36q0 -18 10 -48l213 -600l126 313q63 156 63 252q0 63 -34 90.5t-111 28.5v48h427v-48q-114 -12 -215 -251l-281 -663h-53l-255 720q-68 193 -174 194v48z" />
    <glyph glyph-name="w" unicode="w" horiz-adv-x="1536" 
d="M26 916h320v-48q-39 -1 -39 -31q0 -14 7 -34l214 -621l113 272q72 174 72 293q0 118 -142 121v48h325v-48q-43 0 -43 -29q0 -14 10 -42l214 -615l124 302q66 160 66 267q0 57 -33 87t-113 30v48h429v-48q-66 -10 -116 -71.5t-115 -216.5l-262 -626h-60l-214 616
q-47 -88 -73 -142l-35 -72q-20 -38 -34 -74l-134 -328h-60l-230 667q-49 145 -91.5 194.5t-99.5 52.5v48z" />
    <glyph glyph-name="x" unicode="x" horiz-adv-x="1067" 
d="M71 916h366v-48q-40 -1 -40 -28q0 -13 8 -24l169 -246q51 59 90.5 114t39.5 110q0 72 -99 74v48h405v-48q-80 -4 -162 -72.5t-243 -272.5l202 -285q50 -71 109.5 -129t133.5 -61v-48h-358v48q33 0 33 21q0 18 -17 38l-202 293q-83 -98 -116.5 -156t-33.5 -110
q0 -84 120 -86v-48h-445v48q125 11 310 234l135 164l-168 238q-60 85 -116 133.5t-121 50.5v48z" />
    <glyph glyph-name="y" unicode="y" horiz-adv-x="960" 
d="M-2 916h324v-48q-38 -2 -38 -24q0 -12 6 -25l248 -617l98 261q66 176 66 292q0 61 -33.5 87t-109.5 26v48h417v-48q-64 -4 -98.5 -41.5t-88.5 -164.5l-343 -890q-79 -205 -298 -224l-162 191l54 43q79 -98 176 -98q51 0 94 32t65 75.5t67 161.5l16 41l-273 679
q-44 110 -84 152t-103 43v48z" />
    <glyph glyph-name="z" unicode="z" horiz-adv-x="917" 
d="M125 961h48v-8q0 -37 52 -37h604v-49l-586 -819h214q319 0 329 256h67v-350h-47q-2 28 -18 37t-64 9h-663v48l584 820h-188q-253 0 -266 -225h-66v318z" />
    <glyph glyph-name="braceleft" unicode="{" horiz-adv-x="981" 
d="M287 462v38q134 29 186.5 92.5t52.5 126.5q0 50 -16 122q-27 129 -27 188q0 141 94 249t255 135v-40q-102 -15 -162 -80t-60 -148q0 -48 13 -115q30 -162 30 -210q0 -111 -78 -198t-208 -138q283 -116 283 -350q0 -51 -27 -179q-17 -84 -17 -135q0 -180 226 -233v-36
q-158 28 -255 136.5t-97 249.5q0 57 26 177q19 81 19 112q0 103 -75.5 164.5t-162.5 71.5z" />
    <glyph glyph-name="bar" unicode="|" horiz-adv-x="1045" 
d="M468 1416h109v-1841h-109v1841z" />
    <glyph glyph-name="braceright" unicode="}" horiz-adv-x="981" 
d="M695 501v-37q-134 -29 -186.5 -92.5t-52.5 -127.5q0 -50 15 -122q28 -129 28 -187q0 -141 -94.5 -249.5t-254.5 -134.5v40q101 15 161 80t60 148q0 47 -12 114q-30 163 -30 211q0 110 78 197.5t207 138.5q-282 116 -282 349q0 52 26 180q18 84 18 135q0 180 -226 233v36
q158 -29 255 -137t97 -249q0 -58 -27 -177q-18 -81 -18 -113q0 -88 64.5 -153.5t173.5 -82.5z" />
    <glyph glyph-name="asciitilde" unicode="~" horiz-adv-x="1365" 
d="M1171 789h48q-3 -132 -74 -210t-176 -78q-52 0 -109.5 18t-264.5 103q-153 63 -219 63q-147 0 -182 -182h-47q5 146 78 217t162 71q96 0 381 -122q152 -65 219 -65q76 0 126.5 49t57.5 136z" />
    <glyph glyph-name="Adieresis" unicode="&#xc4;" horiz-adv-x="1237" 
d="M623 1332h59l354 -1022q39 -114 85.5 -186.5t113.5 -75.5v-48h-359v48h23q17 0 17 33q0 10 -4 22l-120 348h-437q-69 -194 -69 -289q0 -50 32.5 -82t85.5 -32h53v-48h-448v48q112 6 204 239zM588 1044l-210 -532h392zM475 1646q44 0 73 -29.5t29 -70.5q0 -43 -30 -72
t-71 -29t-70.5 29.5t-29.5 71.5t30 71t69 29zM838 1646q45 0 74 -30t29 -71q0 -42 -30 -71.5t-71 -29.5q-42 0 -71.5 29.5t-29.5 71.5q0 43 30 72t69 29z" />
    <glyph glyph-name="Aring" unicode="&#xc5;" horiz-adv-x="1237" 
d="M623 1332q-54 7 -87 50.5t-33 95.5q0 62 44.5 105.5t105.5 43.5q63 0 106.5 -44.5t43.5 -102.5q0 -55 -36 -99t-85 -49l354 -1022q39 -112 86 -186.5t113 -75.5v-48h-359v48h23q17 0 17 33q0 10 -4 22l-120 348h-437q-69 -194 -69 -289q0 -50 32.5 -82t85.5 -32h53v-48
h-448v48q113 6 204 239zM653 1569q-40 0 -67 -27.5t-27 -64.5q0 -38 27.5 -65t65.5 -27t65 27t27 65q0 39 -28 65.5t-63 26.5zM588 1044l-210 -532h392z" />
    <glyph glyph-name="Ccedilla" unicode="&#xc7;" horiz-adv-x="1259" 
d="M600 -26q-135 0 -260.5 79t-194.5 220t-69 315q0 217 98 366t248.5 251.5t384.5 102.5q169 0 372 -59v-304h-70q-12 152 -124.5 229.5t-264.5 77.5q-222 0 -348 -166t-126 -390q0 -237 141.5 -408.5t362.5 -171.5t455 189v-64q-292 -252 -555 -267v-89q54 7 86 7
q62 0 105.5 -29t43.5 -83q0 -60 -57 -101t-134 -41t-157 33v49q66 -27 114 -27q53 0 79 19t26 57q0 37 -29.5 55t-88.5 18q-15 0 -38 -1v133z" />
    <glyph glyph-name="Eacute" unicode="&#xc9;" horiz-adv-x="981" 
d="M845 1329h47v-382h-73q-2 150 -86 217t-256 67h-76q-12 -109 -12 -195q0 -171 66.5 -252t214.5 -81h98v-70l-367 -10v-575h106q336 0 385 320h71l-82 -412h-50q-1 44 -38 44h-729v48q90 1 121 34t31 125v865q0 98 -34.5 127.5t-117.5 31.5v48h714q65 0 67 50zM442 1420
l128 238q24 44 57 44q27 0 44 -19t17 -40q0 -24 -35 -64l-169 -188z" />
    <glyph glyph-name="Ntilde" unicode="&#xd1;" horiz-adv-x="1387" 
d="M66 1279h328l727 -977v297q0 286 -43.5 454t-138.5 178v48h437v-48q-183 -17 -183 -601v-676h-47l-863 1166v-372q0 -353 43.5 -520.5t141.5 -179.5v-48h-434v48q182 28 182 689v345q0 89 -34.5 118t-115.5 31v48zM425 1492q79 139 157 139q42 0 146 -44q82 -33 109 -33
q55 0 112 71l37 -23q-86 -136 -165 -136q-30 0 -123 34q-99 38 -132 38q-49 0 -105 -67z" />
    <glyph glyph-name="Odieresis" unicode="&#xd6;" horiz-adv-x="1493" 
d="M798 1308q168 0 297 -66t226 -206t97 -336q0 -213 -120.5 -389.5t-281 -258t-336.5 -81.5q-252 0 -428 173.5t-176 430.5q0 297 220 515t502 218zM673 1215q-185 0 -306.5 -129.5t-121.5 -342.5q0 -313 182.5 -498t399.5 -185q173 0 297.5 130t124.5 334q0 191 -83 358.5
t-226 250t-267 82.5zM564 1646q44 0 73 -29.5t29 -70.5q0 -43 -30 -72t-71 -29t-70.5 29.5t-29.5 71.5t30 71t69 29zM927 1646q45 0 74 -30t29 -71q0 -42 -30 -71.5t-71 -29.5q-42 0 -71.5 29.5t-29.5 71.5q0 43 30 72t69 29z" />
    <glyph glyph-name="Udieresis" unicode="&#xdc;" horiz-adv-x="1387" 
d="M925 1279h441v-48q-187 -28 -187 -625q0 -207 -8.5 -295.5t-60.5 -166t-159 -125.5t-257 -48q-157 0 -267.5 46t-169 132.5t-58.5 212.5v710q0 98 -34.5 127.5t-117.5 31.5v48h489v-48q-89 -2 -120.5 -34.5t-31.5 -124.5v-702q0 -100 31 -165.5t114.5 -118t207.5 -52.5
t209.5 45t124 134.5t38.5 269.5q0 395 -41.5 567t-142.5 181v48zM523 1646q44 0 73 -29.5t29 -70.5q0 -43 -30 -72t-71 -29t-70.5 29.5t-29.5 71.5t30 71t69 29zM886 1646q45 0 74 -30t29 -71q0 -42 -30 -71.5t-71 -29.5q-42 0 -71.5 29.5t-29.5 71.5q0 43 30 72t69 29z" />
    <glyph glyph-name="aacute" unicode="&#xe1;" horiz-adv-x="960" 
d="M155 792q230 152 433 152q95 0 137 -42t41 -142v-625q0 -45 41 -45q40 0 141 92v-62q-152 -149 -248 -149q-86 0 -86 96v148q-125 -128 -211.5 -186t-163.5 -58q-75 0 -128 58.5t-53 142.5q0 217 556 468v120q0 55 -33 91t-91 36q-99 0 -176 -96t-92 -239h-67v240z
M625 559q-185 -38 -300 -130.5t-115 -189.5q0 -62 38.5 -99t100.5 -37q115 0 194.5 121.5t81.5 334.5zM431 1097l128 238q24 44 57 44q27 0 44 -19t17 -40q0 -24 -35 -64l-169 -188z" />
    <glyph glyph-name="agrave" unicode="&#xe0;" horiz-adv-x="960" 
d="M155 792q230 152 433 152q95 0 137 -42t41 -142v-625q0 -45 41 -45q40 0 141 92v-62q-152 -149 -248 -149q-86 0 -86 96v148q-125 -128 -211.5 -186t-163.5 -58q-75 0 -128 58.5t-53 142.5q0 217 556 468v120q0 55 -33 91t-91 36q-99 0 -176 -96t-92 -239h-67v240z
M625 559q-185 -38 -300 -130.5t-115 -189.5q0 -62 38.5 -99t100.5 -37q115 0 194.5 121.5t81.5 334.5zM559 1064l-139 156q-46 51 -56 65t-10 32q0 24 17 43t43 19q20 0 32.5 -9t34.5 -54l114 -231z" />
    <glyph glyph-name="acircumflex" unicode="&#xe2;" horiz-adv-x="960" 
d="M155 792q230 152 433 152q95 0 137 -42t41 -142v-625q0 -45 41 -45q40 0 141 92v-62q-152 -149 -248 -149q-86 0 -86 96v148q-125 -128 -211.5 -186t-163.5 -58q-75 0 -128 58.5t-53 142.5q0 217 556 468v120q0 55 -33 91t-91 36q-99 0 -176 -96t-92 -239h-67v240z
M625 559q-185 -38 -300 -130.5t-115 -189.5q0 -62 38.5 -99t100.5 -37q115 0 194.5 121.5t81.5 334.5zM503 1347l280 -242h-66l-214 126l-211 -126h-68z" />
    <glyph glyph-name="adieresis" unicode="&#xe4;" horiz-adv-x="960" 
d="M155 792q230 152 433 152q95 0 137 -42t41 -142v-625q0 -45 41 -45q40 0 141 92v-62q-152 -149 -248 -149q-86 0 -86 96v148q-125 -128 -211.5 -186t-163.5 -58q-75 0 -128 58.5t-53 142.5q0 217 556 468v120q0 55 -33 91t-91 36q-99 0 -176 -96t-92 -239h-67v240z
M625 559q-185 -38 -300 -130.5t-115 -189.5q0 -62 38.5 -99t100.5 -37q115 0 194.5 121.5t81.5 334.5zM308 1323q44 0 73 -29.5t29 -70.5q0 -43 -30 -72t-71 -29t-70.5 29.5t-29.5 71.5t30 71t69 29zM671 1323q45 0 74 -30t29 -71q0 -42 -30 -71.5t-71 -29.5
q-42 0 -71.5 29.5t-29.5 71.5q0 43 30 72t69 29z" />
    <glyph glyph-name="atilde" unicode="&#xe3;" horiz-adv-x="960" 
d="M155 792q230 152 433 152q95 0 137 -42t41 -142v-625q0 -45 41 -45q40 0 141 92v-62q-152 -149 -248 -149q-86 0 -86 96v148q-125 -128 -211.5 -186t-163.5 -58q-75 0 -128 58.5t-53 142.5q0 217 556 468v120q0 55 -33 91t-91 36q-99 0 -176 -96t-92 -239h-67v240z
M625 559q-185 -38 -300 -130.5t-115 -189.5q0 -62 38.5 -99t100.5 -37q115 0 194.5 121.5t81.5 334.5zM199 1169q79 139 157 139q42 0 146 -44q82 -33 109 -33q55 0 112 71l37 -23q-86 -136 -165 -136q-30 0 -123 34q-99 38 -132 38q-49 0 -105 -67z" />
    <glyph glyph-name="aring" unicode="&#xe5;" horiz-adv-x="960" 
d="M155 792q230 152 433 152q95 0 137 -42t41 -142v-625q0 -45 41 -45q40 0 141 92v-62q-152 -149 -248 -149q-86 0 -86 96v148q-125 -128 -211.5 -186t-163.5 -58q-75 0 -128 58.5t-53 142.5q0 217 556 468v120q0 55 -33 91t-91 36q-99 0 -176 -96t-92 -239h-67v240z
M625 559q-185 -38 -300 -130.5t-115 -189.5q0 -62 38.5 -99t100.5 -37q115 0 194.5 121.5t81.5 334.5zM500 1375q66 0 109.5 -44.5t43.5 -105.5t-44 -105.5t-106 -44.5q-63 0 -106.5 44.5t-43.5 105.5q0 65 45 107.5t102 42.5zM505 1318q-41 0 -67.5 -27.5t-26.5 -64.5
q0 -38 27 -65t65 -27t65 27t27 65q0 40 -28 66t-62 26z" />
    <glyph glyph-name="ccedilla" unicode="&#xe7;" horiz-adv-x="917" 
d="M412 -27q-129 0 -244.5 116t-115.5 316q0 162 74.5 277t179 187t240.5 72q125 0 274 -66v-259h-72q-3 119 -79 193.5t-181 74.5q-135 0 -213.5 -117.5t-78.5 -273.5q0 -167 86 -279t216 -112q149 0 348 209v-70q-199 -247 -385 -268v-88q36 4 58 4q61 0 103.5 -28.5
t42.5 -82.5q0 -64 -57.5 -103t-131.5 -39q-60 0 -128 30v56q62 -31 118 -31q41 0 69.5 20t28.5 54q0 35 -31.5 55t-79.5 20q-16 0 -41 -2v135z" />
    <glyph glyph-name="eacute" unicode="&#xe9;" horiz-adv-x="896" 
d="M856 251q-223 -280 -435 -280q-149 0 -263 129.5t-114 307.5q0 205 135.5 369.5t319.5 164.5q148 0 235 -105t92 -256h-645q-2 -39 -2 -57q0 -177 94 -295.5t232 -118.5q172 0 351 207v-66zM662 631q-12 118 -75 183t-149 65q-90 0 -161 -70.5t-87 -177.5h472zM378 1097
l128 238q24 44 57 44q27 0 44 -19t17 -40q0 -24 -35 -64l-169 -188z" />
    <glyph glyph-name="egrave" unicode="&#xe8;" horiz-adv-x="896" 
d="M856 251q-223 -280 -435 -280q-149 0 -263 129.5t-114 307.5q0 205 135.5 369.5t319.5 164.5q148 0 235 -105t92 -256h-645q-2 -39 -2 -57q0 -177 94 -295.5t232 -118.5q172 0 351 207v-66zM662 631q-12 118 -75 183t-149 65q-90 0 -161 -70.5t-87 -177.5h472zM530 1064
l-139 156q-46 51 -56 65t-10 32q0 24 17 43t43 19q20 0 32.5 -9t34.5 -54l114 -231z" />
    <glyph glyph-name="ecircumflex" unicode="&#xea;" horiz-adv-x="896" 
d="M856 251q-223 -280 -435 -280q-149 0 -263 129.5t-114 307.5q0 205 135.5 369.5t319.5 164.5q148 0 235 -105t92 -256h-645q-2 -39 -2 -57q0 -177 94 -295.5t232 -118.5q172 0 351 207v-66zM662 631q-12 118 -75 183t-149 65q-90 0 -161 -70.5t-87 -177.5h472zM474 1347
l280 -242h-66l-214 126l-211 -126h-68z" />
    <glyph glyph-name="edieresis" unicode="&#xeb;" horiz-adv-x="896" 
d="M856 251q-223 -280 -435 -280q-149 0 -263 129.5t-114 307.5q0 205 135.5 369.5t319.5 164.5q148 0 235 -105t92 -256h-645q-2 -39 -2 -57q0 -177 94 -295.5t232 -118.5q172 0 351 207v-66zM662 631q-12 118 -75 183t-149 65q-90 0 -161 -70.5t-87 -177.5h472zM303 1323
q44 0 73 -29.5t29 -70.5q0 -43 -30 -72t-71 -29t-70.5 29.5t-29.5 71.5t30 71t69 29zM666 1323q45 0 74 -30t29 -71q0 -42 -30 -71.5t-71 -29.5q-42 0 -71.5 29.5t-29.5 71.5q0 43 30 72t69 29z" />
    <glyph glyph-name="iacute" unicode="&#xed;" horiz-adv-x="555" 
d="M59 48q85 2 119.5 38t33.5 118v547q0 63 -72 63q-26 0 -57 -13q-16 -7 -24 -9v51l256 101h49v-740q0 -88 36.5 -121t116.5 -35v-48h-458v48zM216 1097l128 238q24 44 57 44q27 0 44 -19t17 -40q0 -24 -35 -64l-169 -188z" />
    <glyph glyph-name="igrave" unicode="&#xec;" horiz-adv-x="555" 
d="M59 48q85 2 119.5 38t33.5 118v547q0 63 -72 63q-26 0 -57 -13q-16 -7 -24 -9v51l256 101h49v-740q0 -88 36.5 -121t116.5 -35v-48h-458v48zM319 1064l-139 156q-46 51 -56 65t-10 32q0 24 17 43t43 19q20 0 32.5 -9t34.5 -54l114 -231z" />
    <glyph glyph-name="icircumflex" unicode="&#xee;" horiz-adv-x="555" 
d="M59 48q85 2 119.5 38t33.5 118v547q0 63 -72 63q-26 0 -57 -13q-16 -7 -24 -9v51l256 101h49v-740q0 -88 36.5 -121t116.5 -35v-48h-458v48zM263 1347l280 -242h-66l-214 126l-211 -126h-68z" />
    <glyph glyph-name="idieresis" unicode="&#xef;" horiz-adv-x="555" 
d="M60 48q85 2 119.5 38t33.5 118v547q0 63 -72 63q-26 0 -57 -13q-16 -7 -24 -9v51l256 101h49v-740q0 -88 36.5 -121t116.5 -35v-48h-458v48zM93 1323q44 0 73 -29.5t29 -70.5q0 -43 -30 -72t-71 -29t-70.5 29.5t-29.5 71.5t30 71t69 29zM456 1323q45 0 74 -30t29 -71
q0 -42 -30 -71.5t-71 -29.5q-42 0 -71.5 29.5t-29.5 71.5q0 43 30 72t69 29z" />
    <glyph glyph-name="ntilde" unicode="&#xf1;" 
d="M52 839l260 106h42v-329q144 192 237 260.5t176 68.5q169 0 169 -217v-524q0 -89 36.5 -121.5t116.5 -34.5v-48h-348v48q42 2 42 49v618q0 52 -27 83.5t-70 31.5q-126 0 -234.5 -178.5t-108.5 -409.5q0 -117 36 -154.5t128 -39.5v-48h-455v48q81 2 116.5 35t35.5 121v511
q0 99 -66 99q-24 0 -86 -25v50zM290 1169q79 139 157 139q42 0 146 -44q82 -33 109 -33q55 0 112 71l37 -23q-86 -136 -165 -136q-30 0 -123 34q-99 38 -132 38q-49 0 -105 -67z" />
    <glyph glyph-name="oacute" unicode="&#xf3;" horiz-adv-x="1003" 
d="M542 942q189 0 302.5 -118.5t113.5 -315.5q0 -234 -158 -385.5t-348 -151.5t-300 120.5t-110 313.5q0 230 156.5 383.5t343.5 153.5zM457 864q-136 0 -208 -97t-72 -243q0 -180 113.5 -321.5t264.5 -141.5q112 0 189.5 93t77.5 243q0 139 -62 249.5t-142 164t-161 53.5z
M428 1097l128 238q24 44 57 44q27 0 44 -19t17 -40q0 -24 -35 -64l-169 -188z" />
    <glyph glyph-name="ograve" unicode="&#xf2;" horiz-adv-x="1003" 
d="M542 942q189 0 302.5 -118.5t113.5 -315.5q0 -234 -158 -385.5t-348 -151.5t-300 120.5t-110 313.5q0 230 156.5 383.5t343.5 153.5zM457 864q-136 0 -208 -97t-72 -243q0 -180 113.5 -321.5t264.5 -141.5q112 0 189.5 93t77.5 243q0 139 -62 249.5t-142 164t-161 53.5z
M531 1064l-139 156q-46 51 -56 65t-10 32q0 24 17 43t43 19q20 0 32.5 -9t34.5 -54l114 -231z" />
    <glyph glyph-name="ocircumflex" unicode="&#xf4;" horiz-adv-x="1003" 
d="M542 942q189 0 302.5 -118.5t113.5 -315.5q0 -234 -158 -385.5t-348 -151.5t-300 120.5t-110 313.5q0 230 156.5 383.5t343.5 153.5zM457 864q-136 0 -208 -97t-72 -243q0 -180 113.5 -321.5t264.5 -141.5q112 0 189.5 93t77.5 243q0 139 -62 249.5t-142 164t-161 53.5z
M500 1347l280 -242h-66l-214 126l-211 -126h-68z" />
    <glyph glyph-name="odieresis" unicode="&#xf6;" horiz-adv-x="1003" 
d="M542 942q189 0 302.5 -118.5t113.5 -315.5q0 -234 -158 -385.5t-348 -151.5t-300 120.5t-110 313.5q0 230 156.5 383.5t343.5 153.5zM457 864q-136 0 -208 -97t-72 -243q0 -180 113.5 -321.5t264.5 -141.5q112 0 189.5 93t77.5 243q0 139 -62 249.5t-142 164t-161 53.5z
M317 1323q44 0 73 -29.5t29 -70.5q0 -43 -30 -72t-71 -29t-70.5 29.5t-29.5 71.5t30 71t69 29zM680 1323q45 0 74 -30t29 -71q0 -42 -30 -71.5t-71 -29.5q-42 0 -71.5 29.5t-29.5 71.5q0 43 30 72t69 29z" />
    <glyph glyph-name="otilde" unicode="&#xf5;" horiz-adv-x="1003" 
d="M542 942q189 0 302.5 -118.5t113.5 -315.5q0 -234 -158 -385.5t-348 -151.5t-300 120.5t-110 313.5q0 230 156.5 383.5t343.5 153.5zM457 864q-136 0 -208 -97t-72 -243q0 -180 113.5 -321.5t264.5 -141.5q112 0 189.5 93t77.5 243q0 139 -62 249.5t-142 164t-161 53.5z
M220 1169q79 139 157 139q42 0 146 -44q82 -33 109 -33q55 0 112 71l37 -23q-86 -136 -165 -136q-30 0 -123 34q-99 38 -132 38q-49 0 -105 -67z" />
    <glyph glyph-name="uacute" unicode="&#xfa;" 
d="M31 880l343 61v-39q-42 -12 -42 -69v-619q0 -61 27 -96t72 -35q115 0 229 173t114 407q0 90 -23.5 134t-83.5 44q-19 0 -57 -8v47l348 61v-39q-44 -7 -44 -69v-643q0 -93 69 -93q41 0 105 30v-49l-276 -110h-49v332q-157 -214 -248.5 -271.5t-169.5 -57.5
q-165 0 -165 234v547q0 87 -93 87q-20 0 -56 -6v47zM488 1097l128 238q24 44 57 44q27 0 44 -19t17 -40q0 -24 -35 -64l-169 -188z" />
    <glyph glyph-name="ugrave" unicode="&#xf9;" 
d="M31 880l343 61v-39q-42 -12 -42 -69v-619q0 -61 27 -96t72 -35q115 0 229 173t114 407q0 90 -23.5 134t-83.5 44q-19 0 -57 -8v47l348 61v-39q-44 -7 -44 -69v-643q0 -93 69 -93q41 0 105 30v-49l-276 -110h-49v332q-157 -214 -248.5 -271.5t-169.5 -57.5
q-165 0 -165 234v547q0 87 -93 87q-20 0 -56 -6v47zM591 1064l-139 156q-46 51 -56 65t-10 32q0 24 17 43t43 19q20 0 32.5 -9t34.5 -54l114 -231z" />
    <glyph glyph-name="ucircumflex" unicode="&#xfb;" 
d="M31 880l343 61v-39q-42 -12 -42 -69v-619q0 -61 27 -96t72 -35q115 0 229 173t114 407q0 90 -23.5 134t-83.5 44q-19 0 -57 -8v47l348 61v-39q-44 -7 -44 -69v-643q0 -93 69 -93q41 0 105 30v-49l-276 -110h-49v332q-157 -214 -248.5 -271.5t-169.5 -57.5
q-165 0 -165 234v547q0 87 -93 87q-20 0 -56 -6v47zM559 1347l280 -242h-66l-214 126l-211 -126h-68z" />
    <glyph glyph-name="udieresis" unicode="&#xfc;" 
d="M31 880l343 61v-39q-42 -12 -42 -69v-619q0 -61 27 -96t72 -35q115 0 229 173t114 407q0 90 -23.5 134t-83.5 44q-19 0 -57 -8v47l348 61v-39q-44 -7 -44 -69v-643q0 -93 69 -93q41 0 105 30v-49l-276 -110h-49v332q-157 -214 -248.5 -271.5t-169.5 -57.5
q-165 0 -165 234v547q0 87 -93 87q-20 0 -56 -6v47zM376 1323q44 0 73 -29.5t29 -70.5q0 -43 -30 -72t-71 -29t-70.5 29.5t-29.5 71.5t30 71t69 29zM739 1323q45 0 74 -30t29 -71q0 -42 -30 -71.5t-71 -29.5q-42 0 -71.5 29.5t-29.5 71.5q0 43 30 72t69 29z" />
    <glyph glyph-name="dagger" unicode="&#x2020;" horiz-adv-x="896" 
d="M266 1365h360v-45q-49 0 -73.5 -40.5t-44.5 -164.5l-34 -203l121 30q83 21 123.5 46.5t44.5 64.5h45v-338h-45q-5 64 -118 94l-171 47q20 -162 95 -334q-79 -313 -95 -978h-53q-18 626 -95 978q72 164 95 334l-134 -36q-56 -16 -104.5 -36t-53.5 -69h-42v338h42
q8 -69 149 -105l143 -36l-34 192q-26 144 -49 178.5t-72 37.5v45z" />
    <glyph glyph-name="degree" unicode="&#xb0;" horiz-adv-x="768" 
d="M408 1315q123 0 214 -87t91 -218q0 -125 -89.5 -215t-215.5 -90t-215.5 89.5t-89.5 215.5t89.5 215.5t215.5 89.5zM408 1251q-99 0 -170 -70.5t-71 -170.5t70.5 -170.5t170.5 -70.5q99 0 170 71t71 170q0 103 -72 172t-169 69z" />
    <glyph glyph-name="cent" unicode="&#xa2;" horiz-adv-x="917" 
d="M445 1279h72v-151q154 0 296 -62v-263h-69q-9 110 -72.5 182t-154.5 81v-776q138 2 325 213v-78q-170 -209 -325 -258v-167h-72v153q-93 0 -180 38t-153.5 143t-66.5 248q0 201 121.5 352.5t278.5 185.5v159zM445 294v772q-116 -20 -186.5 -131t-70.5 -253
q0 -140 67.5 -252t189.5 -136z" />
    <glyph glyph-name="sterling" unicode="&#xa3;" horiz-adv-x="1195" 
d="M154 739h106q56 0 56 35q0 11 -11 39q-30 76 -30 137q0 162 154 260t311 98q108 0 303 -62v-302h-72q-15 141 -98.5 224.5t-192.5 83.5q-105 0 -177.5 -70.5t-72.5 -179.5q0 -114 86 -188.5t227 -74.5h145v-69h-287q13 -30 13 -57q0 -60 -37 -126t-162 -232q18 5 34 7.5
t31 2.5q55 0 232 -59q219 -74 260 -74q101 0 180 185l44 -15q-65 -172 -123.5 -251.5t-137.5 -79.5q-73 0 -252 64q-183 65 -255 65q-62 0 -116 -38t-99 -114h-59q32 56 129 194q118 169 147 235.5t29 123.5q0 91 -64 169h-241v69z" />
    <glyph glyph-name="section" unicode="&#xa7;" horiz-adv-x="853" 
d="M350 762q-134 86 -181.5 149.5t-47.5 147.5q0 131 96 217t271 86q111 0 222 -44v-253h-70q-16 114 -75.5 178.5t-146.5 64.5q-84 0 -134 -54.5t-50 -122.5t44 -119q44 -52 178 -136q216 -137 262 -217q45 -81 45 -166q0 -206 -233 -314q154 -107 192 -168t38 -135
q0 -142 -126 -235t-290 -93q-115 0 -238 57v273h74q2 -125 65 -196t157 -71q93 0 161 64t68 150q0 71 -46 124q-47 52 -198 143q-195 119 -243.5 195t-48.5 158q0 107 64 186.5t191 130.5zM411 715q-88 -22 -144.5 -78t-56.5 -137q0 -65 53 -126.5t217 -160.5
q179 89 179 222q0 71 -50 132.5t-198 147.5z" />
    <glyph glyph-name="bullet" unicode="&#x2022;" horiz-adv-x="576" 
d="M288 869q93 0 161 -65.5t68 -164.5q0 -94 -67 -161.5t-162 -67.5q-94 0 -161.5 67.5t-67.5 161.5q0 98 68.5 164t160.5 66z" />
    <glyph glyph-name="paragraph" unicode="&#xb6;" horiz-adv-x="896" 
d="M706 1225h-187v-1682h-59v1011q-238 -5 -352.5 88.5t-114.5 259.5q0 133 76.5 229t176.5 122t273 26h380v-36q-76 -4 -105.5 -24.5t-29.5 -150.5v-1525h-58v1682z" />
    <glyph glyph-name="germandbls" unicode="&#xdf;" horiz-adv-x="1088" 
d="M49 838q77 1 110.5 24.5t85 145t101 190t144 121t214.5 52.5q97 0 166.5 -43.5t69.5 -139.5q0 -69 -38.5 -118.5t-154.5 -137.5q-102 -78 -125 -111.5t-23 -58.5q0 -33 32 -60q32 -28 173 -116q170 -107 213 -152q22 -23 32.5 -55.5t10.5 -75.5q0 -126 -112.5 -229
t-250.5 -103q-63 0 -133 24.5t-147 72.5l111 217l42 -23q-10 -44 -10 -66q0 -75 47.5 -120.5t128.5 -45.5q86 0 138 55t52 134q0 78 -43 124t-202 143q-133 80 -168 116q-36 35 -36 85q0 42 25.5 79.5t111.5 122.5q108 105 133 157.5t25 105.5q0 68 -45.5 109t-115.5 41
q-109 0 -182.5 -100t-73.5 -289v-913h-306v48h28q125 0 125 150v592h-153v48z" />
    <glyph glyph-name="registered" unicode="&#xae;" horiz-adv-x="1567" 
d="M783 1308q291 0 499.5 -207t208.5 -501q0 -291 -208 -499t-500 -208q-293 0 -500 207.5t-207 499.5q0 294 208 501t499 207zM783 1253q-269 0 -461.5 -191.5t-192.5 -462.5q0 -270 191.5 -462t462.5 -192q270 0 462 192.5t192 461.5q0 174 -90 330.5t-244.5 240
t-319.5 83.5zM624 580v-228q0 -88 15 -106.5t31.5 -26t81.5 -8.5v-36h-366v36q82 0 101.5 24t19.5 116v526q0 83 -24 107.5t-97 23.5v32h254q146 0 216 -15.5t121.5 -72t51.5 -136.5q0 -88 -60 -146t-163 -68l165 -224q67 -91 107.5 -128.5t111.5 -38.5v-36h-204
q-1 6 -56 79l-25 35l-210 291h-71zM624 622q20 -1 30 -1q131 0 188 59.5t57 147.5q0 76 -48 122t-141 46q-45 0 -86 -17v-357z" />
    <glyph glyph-name="copyright" unicode="&#xa9;" horiz-adv-x="1567" 
d="M783 1308q291 0 499.5 -207t208.5 -501q0 -291 -208 -499t-500 -208q-293 0 -500 207.5t-207 499.5q0 294 208 501t499 207zM783 1253q-269 0 -461.5 -191.5t-192.5 -462.5q0 -270 191.5 -462t462.5 -192q270 0 462 192.5t192 461.5q0 174 -90 330.5t-244.5 240
t-319.5 83.5zM1099 1068l19 -293h-29q-70 246 -284 246q-141 0 -223 -117t-82 -288q0 -192 90.5 -291t231.5 -99q173 0 296 172l22 -15q-128 -218 -349 -218q-177 0 -301.5 122.5t-124.5 320.5t128.5 327.5t301.5 129.5q81 0 172 -37q38 -15 62 -15q39 0 40 55h30z" />
    <glyph glyph-name="trademark" unicode="&#x2122;" horiz-adv-x="1856" 
d="M200 469v33q74 -1 95.5 25.5t21.5 135.5v566h-92q-82 0 -115 -30.5t-43 -109.5h-26v190h675v-190h-26q-7 73 -34.5 106.5t-123.5 33.5h-92v-566q0 -109 21.5 -135.5t95.5 -25.5v-33h-357zM787 1279h237l295 -636l287 636h227v-33q-76 -4 -95 -25.5t-19 -103.5v-474
q0 -92 20 -115.5t94 -25.5v-33h-345v33q76 0 97 24t21 117v515l-310 -689h-18l-322 676v-508q0 -92 16.5 -113.5t101.5 -21.5v-33h-287v33q81 0 97.5 23t16.5 118v460q0 87 -19 112t-95 31v33z" />
    <glyph glyph-name="acute" unicode="&#xb4;" horiz-adv-x="683" 
d="M270 1097l128 238q24 44 57 44q27 0 44 -19t17 -40q0 -24 -35 -64l-169 -188z" />
    <glyph glyph-name="dieresis" unicode="&#xa8;" horiz-adv-x="683" 
d="M160 1322q44 0 73 -29.5t29 -70.5q0 -43 -30 -72t-71 -29t-70.5 29.5t-29.5 71.5t30 71t69 29zM523 1322q45 0 74 -30t29 -71q0 -42 -30 -71.5t-71 -29.5q-42 0 -71.5 29.5t-29.5 71.5q0 43 30 72t69 29z" />
    <glyph glyph-name="notequal" unicode="&#x2260;" horiz-adv-x="1365" 
d="M143 934h602l209 532h91l-204 -532h380v-108h-424l-139 -357h563v-108h-604l-211 -530h-92l209 530h-380v108h422l139 357h-561v108z" />
    <glyph glyph-name="AE" unicode="&#xc6;" horiz-adv-x="1557" 
d="M1420 1325h46v-381h-69q-1 287 -325 287h-96q-10 -129 -10 -216q0 -125 34 -186t87.5 -94t255.5 -33v-71l-367 -9v-574h79q369 0 411 318h73l-87 -413h-46v11q0 36 -39 36h-727v48q89 2 122 37t32 128v254h-431l-83 -153q-58 -107 -58 -174q0 -37 27.5 -64.5t68.5 -27.5
h45v-48h-463v48q126 8 328 338l545 893h594q50 0 53 46zM794 1175l-395 -648h395v648z" />
    <glyph glyph-name="Oslash" unicode="&#xd8;" horiz-adv-x="1493" 
d="M1192 1342h87l-101 -147q244 -198 244 -492q0 -285 -214.5 -508.5t-524.5 -223.5q-149 0 -300 77l-77 -106h-86l102 145q-241 194 -241 494q0 285 217 506t513 221q144 0 306 -77zM1013 1085q-163 131 -348 131q-167 0 -291 -128.5t-124 -344.5q0 -286 182 -495z
M1066 1036l-582 -837q165 -135 331 -135q184 0 311 127t127 338q0 309 -187 507z" />
    <glyph glyph-name="infinity" unicode="&#x221e;" horiz-adv-x="1460" 
d="M654 667q70 169 158 223t212 54q97 0 180 -43.5t143 -139.5t60 -234q0 -123 -49 -216t-132.5 -148.5t-167.5 -55.5q-98 0 -169 60.5t-168 225.5q-56 -116 -137 -174.5t-187 -58.5q-108 0 -182 52t-117.5 127.5t-43.5 189.5q0 157 88.5 262t218.5 105q95 0 159 -49.5
t134 -179.5zM750 464q69 -147 142.5 -205t169.5 -58q135 0 211.5 95.5t76.5 230.5q0 143 -86 241t-196 98q-85 0 -150 -58t-168 -344zM625 590q-45 107 -111.5 160.5t-155.5 53.5q-96 0 -172.5 -69.5t-76.5 -204.5q0 -137 72.5 -214.5t157.5 -77.5q63 0 133 51t142 267z" />
    <glyph glyph-name="plusminus" unicode="&#xb1;" horiz-adv-x="1365" 
d="M142 862h486v486h108v-486h486v-108h-486v-486h-108v486h-486v108zM142 53h1080v-108h-1080v108z" />
    <glyph glyph-name="lessequal" unicode="&#x2264;" horiz-adv-x="1365" 
d="M1222 347l-1080 456v97l1080 454v-117l-936 -385l936 -388v-117zM142 46h1080v-108h-1080v108z" />
    <glyph glyph-name="greaterequal" unicode="&#x2265;" horiz-adv-x="1365" 
d="M142 347v117l937 388l-937 385v117l1080 -454v-97zM1222 46v-108h-1080v108h1080z" />
    <glyph glyph-name="yen" unicode="&#xa5;" horiz-adv-x="1195" 
d="M735 561h417v-72h-458v-145h458v-72h-458v-65q0 -154 152 -159v-48h-489v48q89 1 120.5 34.5t31.5 124.5v65h-401v72h401v145h-401v72h366l-215 432q-57 114 -108.5 175.5t-115.5 62.5v48h363v-48q-38 -1 -38 -27q0 -8 4 -18l314 -624q243 380 243 554q0 62 -36.5 88
t-126.5 27v48h478v-48q-58 -1 -113 -52t-126 -172z" />
    <glyph glyph-name="mu" unicode="&#xb5;" horiz-adv-x="1045" 
d="M120 916h135v-610q0 -118 38.5 -171.5t128.5 -53.5q51 0 102.5 24.5t150.5 118.5v692h132v-636q0 -131 20 -172.5t64 -41.5q69 0 95 134h43q-8 -126 -66 -179t-127 -53q-70 0 -110.5 49t-50.5 146q-87 -95 -167.5 -143t-154.5 -48q-63 0 -108.5 30.5t-74.5 91.5
q0 -42 0.5 -90.5t2.5 -87t4.5 -59.5t4 -29t15.5 -59q22 -81 22 -115q0 -42 -23 -69.5t-56 -27.5q-34 0 -58 27.5t-24 67.5q0 31 21 110q25 91 31.5 186.5t8.5 375.5l1 36v556z" />
    <glyph glyph-name="partialdiff" unicode="&#x2202;" horiz-adv-x="1003" 
d="M925 717q12 108 12 187q0 177 -94 276.5t-252 99.5q-95 0 -170.5 -39.5t-130.5 -119.5h-46q68 151 163.5 226t217.5 75q155 0 260.5 -123t105.5 -380q0 -361 -166 -655.5t-426 -294.5q-147 0 -243 86t-96 249q0 239 164.5 421.5t387.5 182.5q102 0 188 -52.5t125 -138.5z
M908 628q-37 113 -118 169t-169 56q-94 0 -185.5 -68.5t-149 -229t-57.5 -292.5q0 -105 52 -171t143 -66q136 0 279.5 163.5t204.5 438.5z" />
    <glyph glyph-name="summation" unicode="&#x2211;" horiz-adv-x="1451" 
d="M1351 -204h-1313v36l669 831l-669 817v37h1278l27 -337h-40q-27 256 -249 256h-740l562 -687l-629 -777h818q67 0 139 23t109 72.5t62 150.5l40 -7z" />
    <glyph glyph-name="product" unicode="&#x220f;" horiz-adv-x="1685" 
d="M1239 1438h-795v-1449q0 -85 39 -120t123 -35h36v-38h-597v38h35q87 0 125 36t38 119v1334q0 86 -39.5 120.5t-123.5 34.5h-35v38h1594v-38h-35q-92 0 -127 -37.5t-35 -117.5v-1334q0 -85 39 -120t123 -35h35v-38h-597v38h35q87 0 124.5 36t37.5 119v1449z" />
    <glyph glyph-name="pi" unicode="&#x3c0;" horiz-adv-x="1124" 
d="M1024 916v-146h-232q-39 -236 -39 -459q0 -93 37 -132.5t88 -39.5q98 0 110 111h36q-18 -145 -74.5 -211.5t-131.5 -66.5q-72 0 -123.5 67.5t-51.5 279.5q0 195 38 451h-235l-17 -245q-9 -129 -34.5 -275t-49 -196t-46.5 -66t-47 -16q-37 0 -63.5 24.5t-26.5 58.5
q0 30 8.5 49.5t56.5 85.5q52 71 70 168.5t38 411.5h-29q-67 0 -111.5 -27t-96.5 -114h-36q30 113 78 180.5t96.5 87t149.5 19.5h638z" />
    <glyph glyph-name="integral" unicode="&#x222b;" horiz-adv-x="561" 
d="M200 895l12 445q9 344 75 433.5t148 89.5q43 0 84 -30.5t41 -76.5q0 -44 -25.5 -74t-66.5 -30q-35 0 -76 36q-23 20 -40 20q-40 0 -40 -63q0 -42 9 -146q37 -411 37 -665q0 -68 -12 -470.5t-77 -493t-151 -90.5q-49 0 -83.5 32.5t-34.5 88.5q0 43 24.5 71t65.5 28
q40 0 70 -33q28 -31 48 -31t29.5 15.5t9.5 45.5q0 42 -9 120q-38 317 -38 778z" />
    <glyph glyph-name="ordfeminine" unicode="&#xaa;" horiz-adv-x="640" 
d="M102 1211q151 101 288 101q60 0 89 -28q28 -28 28 -65v-434q0 -38 24 -38q33 0 97 58v-38q-100 -100 -164 -100q-57 0 -57 68v95q-154 -160 -245 -160q-51 0 -87.5 39t-36.5 94q0 138 369 310v68q0 48 -19.5 71.5t-58.5 23.5q-63 0 -118.5 -59t-62.5 -163h-46v157z
M413 1054q-122 -25 -198 -84.5t-76 -124.5q0 -45 23 -67.5t68 -22.5q78 0 129.5 80t53.5 219z" />
    <glyph glyph-name="ordmasculine" unicode="&#xba;" horiz-adv-x="661" 
d="M361 1308q132 0 204.5 -80t72.5 -208q0 -152 -104.5 -252.5t-227.5 -100.5q-120 0 -197 76.5t-77 208.5q0 149 101.5 252.5t227.5 103.5zM307 1257q-88 0 -137 -63.5t-49 -159.5q0 -123 76 -216.5t172 -93.5q77 0 128 62.5t51 163.5q0 140 -80.5 223.5t-160.5 83.5z" />
    <glyph glyph-name="Omega" unicode="&#x2126;" horiz-adv-x="1573" 
d="M86 313h36q3 -54 33.5 -90.5t129.5 -36.5h270v67q-166 32 -300 178.5t-134 365.5q0 256 191 423t478 167q285 0 474 -163.5t189 -423.5q0 -210 -118.5 -351t-317.5 -196v-67h275q80 0 116 28.5t42 98.5h36v-313h-559l22 302q258 82 258 477q0 258 -126 395.5t-296 137.5
q-181 0 -300 -145.5t-119 -373.5q0 -191 59 -315t197 -176l23 -302h-559v313z" />
    <glyph glyph-name="ae" unicode="&#xe6;" horiz-adv-x="1515" 
d="M175 789q261 156 433 156q83 0 126.5 -40.5t47.5 -121.5q142 162 308 162q141 0 235 -102.5t98 -263.5h-647q-1 -35 -1 -55q0 -192 98 -303.5t230 -111.5q92 0 172 50t181 155v-68q-132 -146 -233.5 -210.5t-203.5 -64.5q-111 0 -210.5 76t-144.5 214q-98 -126 -209 -208
t-188 -82q-68 0 -125 58.5t-57 141.5q0 104 128 214t417 262v108q0 66 -29.5 98.5t-88.5 32.5q-95 0 -177.5 -95t-91.5 -242h-68v240zM1257 630q-2 109 -67.5 179t-152.5 70q-88 0 -161.5 -69.5t-90.5 -179.5h472zM646 562q-180 -45 -295.5 -130.5t-115.5 -194.5
q0 -63 37.5 -100t99.5 -37q110 0 186 110q91 131 88 352z" />
    <glyph glyph-name="oslash" unicode="&#xf8;" horiz-adv-x="1003" 
d="M778 973h79l-62 -104q165 -126 165 -362q0 -161 -80.5 -284.5t-196 -187.5t-227.5 -64q-87 0 -190 43l-46 -72h-76l64 106q-75 49 -121 148t-46 209q0 209 149.5 373t358.5 164q98 0 186 -38zM297 191l360 589q-98 84 -206 84q-120 0 -197 -92.5t-77 -236.5
q0 -196 120 -344zM708 729l-362 -585q103 -83 209 -83q116 0 191 92t75 248q0 170 -113 328z" />
    <glyph glyph-name="questiondown" unicode="&#xbf;" horiz-adv-x="917" 
d="M481 876q52 0 87 -35t35 -84q0 -50 -35.5 -85t-84.5 -35t-84 35t-35 85q0 52 35.5 85.5t81.5 33.5zM431 541h100q-2 -151 -39 -250.5t-142 -237.5q-57 -75 -99.5 -146t-42.5 -138q0 -74 47.5 -123t131.5 -49q131 0 226.5 115t102.5 281h66v-302q-273 -151 -505 -151
q-131 0 -209 59.5t-78 165.5q0 88 47.5 160t161.5 181q149 142 190 231.5t42 203.5z" />
    <glyph glyph-name="exclamdown" unicode="&#xa1;" horiz-adv-x="619" 
d="M310 884q53 0 87.5 -35.5t34.5 -83.5q0 -50 -35 -85t-85 -35q-49 0 -84 35t-35 85t36 84.5t81 34.5zM239 549h141l26 -754q3 -106 34.5 -138t117.5 -34v-49h-509v49h32q111 0 118 127z" />
    <glyph glyph-name="logicalnot" unicode="&#xac;" horiz-adv-x="1365" 
d="M142 935h1080v-574h-108v466h-972v108z" />
    <glyph glyph-name="radical" unicode="&#x221a;" horiz-adv-x="1124" 
d="M1050 1869h74l-312 -1947l-496 1021l-198 -91l-34 64l301 151l405 -823z" />
    <glyph glyph-name="florin" unicode="&#x192;" horiz-adv-x="1088" 
d="M639 1241q145 136 287 136q105 0 162 -75l-162 -174l-34 30q11 23 11 42q0 37 -27 61t-59 24q-86 0 -153.5 -106.5t-67.5 -209.5q0 -66 41 -96.5t146 -30.5h95l-11 -47h-312l-181 -720q-45 -181 -110 -281.5t-195 -220.5h-69q143 124 199.5 241t81.5 281l107 700h-140
l13 47q69 1 111 33.5t106 142.5q81 139 161 223z" />
    <glyph glyph-name="approxequal" unicode="&#x2248;" horiz-adv-x="1365" 
d="M1171 1036h48q-3 -132 -74 -210t-175 -78q-53 0 -110.5 18t-264.5 103q-152 63 -219 63q-147 0 -182 -182h-47q5 146 78 217t162 71q95 0 381 -123q151 -65 220 -65q76 0 126 49.5t57 136.5zM1171 540h48q-3 -131 -74 -209t-175 -78q-53 0 -110.5 18t-264.5 103
q-152 62 -219 62q-147 0 -182 -182h-47q5 147 78.5 217.5t161.5 70.5q95 0 381 -122q152 -65 219 -65q76 0 126.5 49t57.5 136z" />
    <glyph glyph-name="Delta" unicode="&#x2206;" horiz-adv-x="1259" 
d="M1229 0h-1200l628 1387zM993 82l-399 967l-440 -967h839z" />
    <glyph glyph-name="guillemotleft" unicode="&#xab;" horiz-adv-x="811" 
d="M441 915v-75l-230 -384l224 -379v-77l-382 456zM747 910v-73l-228 -381l222 -381v-75l-383 456z" />
    <glyph glyph-name="guillemotright" unicode="&#xbb;" horiz-adv-x="811" 
d="M76 913l385 -456l-394 -457v74l232 383l-223 382v74zM382 913l384 -456l-393 -457v74l231 383l-222 382v74z" />
    <glyph glyph-name="ellipsis" unicode="&#x2026;" horiz-adv-x="2048" 
d="M339 208q53 0 88 -35t35 -83q0 -49 -35.5 -84t-85.5 -35q-49 0 -84.5 35t-35.5 84q0 50 36 84t82 34zM1704 208q53 0 88 -35t35 -83q0 -49 -35.5 -84t-84.5 -35q-50 0 -85.5 35t-35.5 84q0 50 36.5 84t81.5 34zM1022 208q52 0 87 -35t35 -83q0 -49 -35.5 -84t-84.5 -35
q-50 0 -85 35t-35 84q0 51 36 84.5t82 33.5z" />
    <glyph glyph-name="nonbreakingspace" unicode="&#xa0;" horiz-adv-x="512" 
 />
    <glyph glyph-name="Agrave" unicode="&#xc0;" horiz-adv-x="1237" 
d="M623 1332h59l354 -1022q39 -114 85.5 -186.5t113.5 -75.5v-48h-359v48h23q17 0 17 33q0 10 -4 22l-120 348h-437q-69 -194 -69 -289q0 -50 32.5 -82t85.5 -32h53v-48h-448v48q112 6 204 239zM588 1044l-210 -532h392zM689 1387l-139 156q-46 51 -56 65t-10 32q0 24 17 43
t43 19q20 0 32.5 -9t34.5 -54l114 -231z" />
    <glyph glyph-name="Atilde" unicode="&#xc3;" horiz-adv-x="1237" 
d="M623 1332h59l354 -1022q39 -114 85.5 -186.5t113.5 -75.5v-48h-359v48h23q17 0 17 33q0 10 -4 22l-120 348h-437q-69 -194 -69 -289q0 -50 32.5 -82t85.5 -32h53v-48h-448v48q112 6 204 239zM588 1044l-210 -532h392zM378 1492q79 139 157 139q42 0 146 -44
q82 -33 109 -33q55 0 112 71l37 -23q-86 -136 -165 -136q-30 0 -123 34q-99 38 -132 38q-49 0 -105 -67z" />
    <glyph glyph-name="Otilde" unicode="&#xd5;" horiz-adv-x="1493" 
d="M798 1308q168 0 297 -66t226 -206t97 -336q0 -213 -120.5 -389.5t-281 -258t-336.5 -81.5q-252 0 -428 173.5t-176 430.5q0 297 220 515t502 218zM673 1215q-185 0 -306.5 -129.5t-121.5 -342.5q0 -313 182.5 -498t399.5 -185q173 0 297.5 130t124.5 334q0 191 -83 358.5
t-226 250t-267 82.5zM467 1492q79 139 157 139q42 0 146 -44q82 -33 109 -33q55 0 112 71l37 -23q-86 -136 -165 -136q-30 0 -123 34q-99 38 -132 38q-49 0 -105 -67z" />
    <glyph glyph-name="OE" unicode="&#x152;" horiz-adv-x="1771" 
d="M1622 1327h49v-383h-73q0 161 -91.5 224t-221.5 63h-106q-12 -73 -12 -200q0 -177 70 -254t221 -77h89v-70l-368 -8v-574h112q311 0 368 286h76l-76 -381h-51l1 10q0 37 -44 37h-512q-37 0 -154 -14q-133 -15 -188 -15q-165 0 -302.5 65.5t-233.5 209t-96 328.5
q0 156 62.5 292.5t183.5 247t238.5 147.5t262.5 37q36 0 104 -7q103 -12 168 -12h467q57 0 57 48zM997 1125q-125 101 -294 101q-198 0 -328 -133t-130 -359q0 -186 88 -354t243 -255t314 -87q66 0 107 10v1077z" />
    <glyph glyph-name="oe" unicode="&#x153;" horiz-adv-x="1685" 
d="M908 737q154 208 349 208q152 0 238 -100.5t93 -259.5h-644q-2 -34 -2 -49q0 -182 93 -304t238 -122q167 0 351 210v-70q-239 -279 -439 -279q-100 0 -182 56t-147 167q-82 -111 -182.5 -167t-218.5 -56q-178 0 -293 120.5t-115 316.5q0 220 151 378.5t356 158.5
q120 0 208.5 -52t145.5 -156zM951 634h472q-6 107 -69 177.5t-155 70.5q-86 0 -156.5 -70t-91.5 -178zM456 864q-132 0 -204.5 -99t-72.5 -236q0 -174 111 -320t260 -146q120 0 194.5 91t74.5 244q0 209 -120 337.5t-243 128.5z" />
    <glyph glyph-name="endash" unicode="&#x2013;" horiz-adv-x="1024" 
d="M-12 550h1048v-61h-1048v61z" />
    <glyph glyph-name="emdash" unicode="&#x2014;" horiz-adv-x="2048" 
d="M-12 550h2072v-61h-2072v61z" />
    <glyph glyph-name="quotedblleft" unicode="&#x201c;" horiz-adv-x="939" 
d="M421 1412v-55q-117 -78 -173.5 -173t-56.5 -165q0 -55 32 -98q20 24 42.5 35.5t47.5 11.5q102 0 102 -100q0 -58 -45.5 -90t-106.5 -32q-87 0 -135.5 54t-48.5 129q0 136 101 272t241 211zM875 1412v-55q-117 -78 -173.5 -173t-56.5 -165q0 -55 33 -98q20 24 42.5 35.5
t47.5 11.5q101 0 101 -100q0 -58 -45 -90t-106 -32q-87 0 -135.5 54t-48.5 129q0 129 100.5 271t240.5 212z" />
    <glyph glyph-name="quotedblright" unicode="&#x201d;" horiz-adv-x="939" 
d="M82 743v57q114 81 171 165.5t57 172.5q0 61 -33 100q-16 -24 -39.5 -36.5t-54.5 -12.5q-47 0 -73 30.5t-26 65.5q0 46 41.5 85.5t113.5 39.5q84 0 133 -50t49 -137q0 -136 -91.5 -260t-247.5 -220zM718 1239q-18 -25 -42 -37.5t-53 -12.5q-43 0 -71.5 27.5t-28.5 67.5
q0 49 41.5 87.5t112.5 38.5q88 0 135.5 -52t47.5 -132q0 -131 -92.5 -263.5t-245.5 -218.5v55q114 83 171 167t57 170q0 54 -32 103z" />
    <glyph glyph-name="quoteleft" unicode="&#x2018;" horiz-adv-x="491" 
d="M467 1412v-55q-117 -78 -173.5 -173t-56.5 -165q0 -55 32 -98q20 24 42.5 35.5t47.5 11.5q102 0 102 -100q0 -58 -45.5 -90t-106.5 -32q-87 0 -135.5 54t-48.5 129q0 136 101 272t241 211z" />
    <glyph glyph-name="quoteright" unicode="&#x2019;" horiz-adv-x="491" 
d="M105 743v56q114 81 171 165.5t57 172.5q0 62 -33 101q-16 -24 -39.5 -36.5t-55.5 -12.5q-42 0 -70 28.5t-28 68.5q0 47 40.5 85.5t112.5 38.5q87 0 135.5 -51t48.5 -135q0 -130 -92.5 -260.5t-246.5 -220.5z" />
    <glyph glyph-name="divide" unicode="&#xf7;" horiz-adv-x="1365" 
d="M754 1059q0 -30 -21 -51t-51 -21t-51 21t-21 51t21 51t51 21t51 -21t21 -51zM142 696h1080v-108h-1080v108zM754 225q0 -30 -21 -51.5t-51 -21.5t-51 21.5t-21 51.5q0 29 21 50.5t51 21.5t51 -21t21 -51z" />
    <glyph glyph-name="lozenge" unicode="&#x25ca;" horiz-adv-x="1012" 
d="M549 1422l418 -713l-418 -709h-111l-391 709l391 713h111zM495 1325l-340 -616l340 -615l359 615z" />
    <glyph glyph-name="ydieresis" unicode="&#xff;" horiz-adv-x="960" 
d="M-2 916h324v-48q-38 -2 -38 -24q0 -12 6 -25l248 -617l98 261q66 176 66 292q0 61 -33.5 87t-109.5 26v48h417v-48q-64 -4 -98.5 -41.5t-88.5 -164.5l-343 -890q-79 -205 -298 -224l-162 191l54 43q79 -98 176 -98q51 0 94 32t65 75.5t67 161.5l16 41l-273 679
q-44 110 -84 152t-103 43v48zM298 1323q44 0 73 -29.5t29 -70.5q0 -43 -30 -72t-71 -29t-70.5 29.5t-29.5 71.5t30 71t69 29zM661 1323q45 0 74 -30t29 -71q0 -42 -30 -71.5t-71 -29.5q-42 0 -71.5 29.5t-29.5 71.5q0 43 30 72t69 29z" />
    <glyph glyph-name="Ydieresis" unicode="&#x178;" horiz-adv-x="1195" 
d="M35 1279h363v-48q-38 -1 -38 -27q0 -8 4 -18l314 -624q243 380 243 554q0 62 -36.5 88t-126.5 27v48h478v-48q-58 -1 -113 -52t-126 -172l-303 -516v-284q0 -154 152 -159v-48h-489v48q89 1 120.5 34.5t31.5 124.5v284l-250 502q-57 114 -108.5 175.5t-115.5 62.5v48z
M452 1646q44 0 73 -29.5t29 -70.5q0 -43 -30 -72t-71 -29t-70.5 29.5t-29.5 71.5t30 71t69 29zM815 1646q45 0 74 -30t29 -71q0 -42 -30 -71.5t-71 -29.5q-42 0 -71.5 29.5t-29.5 71.5q0 43 30 72t69 29z" />
    <glyph glyph-name="fraction" unicode="&#x2215;" horiz-adv-x="299" 
d="M568 1413h86l-923 -1445h-91z" />
    <glyph glyph-name="currency" unicode="&#xa4;" horiz-adv-x="1387" 
d="M971 995l126 126l73 -76l-125 -125q96 -127 96 -277q0 -151 -96 -277l125 -125l-73 -74l-126 125q-63 -48 -132.5 -72.5t-145.5 -24.5q-152 0 -277 96l-126 -124l-75 74l126 124q-96 126 -96 278q0 150 96 278l-126 124l74 76l126 -125q65 48 134.5 71.5t143.5 23.5
q149 0 278 -96zM1034 643q0 142 -100 242t-241 100t-241.5 -100.5t-100.5 -241.5t100 -241t242 -100q141 0 241 100t100 241z" />
    <glyph glyph-name="guilsinglleft" unicode="&#x2039;" horiz-adv-x="512" 
d="M457 912v-75l-228 -382l222 -380v-75l-383 455z" />
    <glyph glyph-name="guilsinglright" unicode="&#x203a;" horiz-adv-x="512" 
d="M73 915l384 -458l-393 -457v75l231 382l-222 381v77z" />
    <glyph glyph-name="fi" unicode="&#xf001;" horiz-adv-x="1195" 
d="M1008 941v-737q0 -89 37 -121.5t116 -34.5v-48h-458v48q80 2 116.5 34.5t36.5 121.5v539q1 28 -18.5 46t-54.5 18q-13 0 -43 -4q-91 -14 -176 -14h-206v-585q0 -89 37.5 -121.5t115.5 -34.5v-48h-454v48q76 2 112.5 33.5t36.5 122.5v585h-149v48q73 0 103.5 24t63.5 127
q123 377 366 377q60 0 103 -18v-250h-71q-28 180 -120 180q-72 0 -113 -76t-41 -184q0 -80 44 -130t179 -50q85 0 149 15.5t240 88.5h48zM929 1354q41 0 67.5 -27.5t26.5 -64.5q0 -38 -27 -65.5t-65 -27.5t-65.5 27.5t-27.5 65.5q0 39 28 65.5t63 26.5z" />
    <glyph glyph-name="fl" unicode="&#xf002;" horiz-adv-x="1195" 
d="M1046 1373q-43 -27 -43 -82v-1087q0 -84 34.5 -119t118.5 -37v-48h-459v48q82 2 118.5 35.5t36.5 120.5v938q0 124 -82 124q-73 0 -73 -97v-78h-72q-11 106 -41.5 144t-83.5 38q-75 0 -112.5 -75.5t-37.5 -182.5q0 -182 201 -182h51v-48h-242v-581q0 -90 37.5 -122
t115.5 -34v-48h-458v48q82 2 117.5 35.5t35.5 120.5v581h-145v48q67 0 97.5 24t61.5 121q124 381 348 381q39 0 106 -19q64 -19 96 -19q68 0 274 95v-43z" />
    <glyph glyph-name="daggerdbl" unicode="&#x2021;" horiz-adv-x="896" 
d="M266 1364h363v-45q-51 -2 -73 -35t-46 -161l-40 -211l105 27q115 30 149.5 52.5t36.5 64.5h56v-341h-56q-5 32 -27.5 52.5t-98.5 41.5l-157 48q46 -250 97 -399q-64 -209 -97 -410l157 50l13 6l36 12q45 16 62.5 32t21.5 48h49v-346h-49q-4 33 -24 50t-76 40l-190 54
l49 -251q20 -101 40 -126t68 -26v-46h-369v46q47 1 69 30.5t39 121.5l46 257l-187 -60l-9 -2q-84 -23 -90 -88h-51v346h51q6 -38 32 -58t111 -46l143 -44q-20 150 -98 410q47 137 98 399l-170 -48q-119 -33 -123 -94h-44v341h44q9 -40 26.5 -53.5t88.5 -41.5l178 -49
l-55 281q-12 59 -30 91t-69 35v45z" />
    <glyph glyph-name="periodcentered" unicode="&#x2219;" horiz-adv-x="405" 
d="M203 760q53 0 88 -36t35 -85t-35.5 -84.5t-85.5 -35.5q-49 0 -84.5 35.5t-35.5 84.5q0 52 36.5 86.5t81.5 34.5z" />
    <glyph glyph-name="quotesinglbase" unicode="&#x201a;" horiz-adv-x="491" 
d="M119 -445v56q114 81 171 165t57 172q0 61 -33 100q-16 -24 -39.5 -36t-55.5 -12q-42 0 -70 29t-28 68q0 46 39.5 85.5t113.5 39.5q86 0 135 -50.5t49 -136.5q0 -129 -92.5 -259.5t-246.5 -220.5z" />
    <glyph glyph-name="quotedblbase" unicode="&#x201e;" horiz-adv-x="939" 
d="M78 -447v58q94 56 159.5 150.5t65.5 184.5q0 54 -29 102q-17 -24 -40 -36t-52 -12q-47 0 -74 30t-27 70q0 52 42.5 86.5t110.5 34.5q83 0 131.5 -51t48.5 -132q0 -140 -92.5 -266.5t-243.5 -218.5zM723 48q-17 -24 -40 -36t-51 -12q-42 0 -71.5 28.5t-29.5 70.5
q0 46 37.5 84t114.5 38q89 0 135 -52.5t46 -134.5q0 -130 -89.5 -258.5t-246.5 -222.5v56q113 80 169.5 165.5t56.5 177.5q0 50 -31 96z" />
    <glyph glyph-name="perthousand" unicode="&#x2030;" horiz-adv-x="2069" 
d="M1098 1335h85l-887 -1396h-86zM414 1295q119 0 195.5 -85t76.5 -221q0 -156 -100 -269t-238 -113q-116 0 -191.5 84.5t-75.5 215.5q0 160 100.5 274t232.5 114zM354 1229q-73 0 -114 -58t-41 -157q0 -132 60.5 -237.5t156.5 -105.5q73 0 112 61t39 165q0 125 -60.5 228.5
t-152.5 103.5zM1043 670q122 0 196.5 -88t74.5 -217q0 -149 -93.5 -267t-239.5 -118q-119 0 -195.5 86t-76.5 212q0 158 97 275t237 117zM982 604q-76 0 -115 -61t-39 -148q0 -130 59.5 -238t151.5 -108q82 0 120.5 63t38.5 153q0 143 -64.5 241t-151.5 98zM1719 670
q122 0 196.5 -88t74.5 -217q0 -158 -98.5 -271.5t-234.5 -113.5q-124 0 -198.5 87.5t-74.5 210.5q0 152 94 272t241 120zM1657 604q-75 0 -114 -59.5t-39 -149.5q0 -130 59.5 -238t150.5 -108q82 0 120.5 63t38.5 153q0 143 -64.5 241t-151.5 98z" />
    <glyph glyph-name="Acircumflex" unicode="&#xc2;" horiz-adv-x="1237" 
d="M623 1332h59l354 -1022q39 -114 85.5 -186.5t113.5 -75.5v-48h-359v48h23q17 0 17 33q0 10 -4 22l-120 348h-437q-69 -194 -69 -289q0 -50 32.5 -82t85.5 -32h53v-48h-448v48q112 6 204 239zM588 1044l-210 -532h392zM646 1670l280 -242h-66l-214 126l-211 -126h-68z" />
    <glyph glyph-name="Ecircumflex" unicode="&#xca;" horiz-adv-x="981" 
d="M845 1329h47v-382h-73q-2 150 -86 217t-256 67h-76q-12 -109 -12 -195q0 -171 66.5 -252t214.5 -81h98v-70l-367 -10v-575h106q336 0 385 320h71l-82 -412h-50q-1 44 -38 44h-729v48q90 1 121 34t31 125v865q0 98 -34.5 127.5t-117.5 31.5v48h714q65 0 67 50zM513 1670
l280 -242h-66l-214 126l-211 -126h-68z" />
    <glyph glyph-name="Aacute" unicode="&#xc1;" horiz-adv-x="1237" 
d="M623 1332h59l354 -1022q39 -114 85.5 -186.5t113.5 -75.5v-48h-359v48h23q17 0 17 33q0 10 -4 22l-120 348h-437q-69 -194 -69 -289q0 -50 32.5 -82t85.5 -32h53v-48h-448v48q112 6 204 239zM588 1044l-210 -532h392zM550 1420l128 238q24 44 57 44q27 0 44 -19t17 -40
q0 -24 -35 -64l-169 -188z" />
    <glyph glyph-name="Edieresis" unicode="&#xcb;" horiz-adv-x="981" 
d="M845 1329h47v-382h-73q-2 150 -86 217t-256 67h-76q-12 -109 -12 -195q0 -171 66.5 -252t214.5 -81h98v-70l-367 -10v-575h106q336 0 385 320h71l-82 -412h-50q-1 44 -38 44h-729v48q90 1 121 34t31 125v865q0 98 -34.5 127.5t-117.5 31.5v48h714q65 0 67 50zM330 1646
q44 0 73 -29.5t29 -70.5q0 -43 -30 -72t-71 -29t-70.5 29.5t-29.5 71.5t30 71t69 29zM693 1646q45 0 74 -30t29 -71q0 -42 -30 -71.5t-71 -29.5q-42 0 -71.5 29.5t-29.5 71.5q0 43 30 72t69 29z" />
    <glyph glyph-name="Egrave" unicode="&#xc8;" horiz-adv-x="981" 
d="M845 1329h47v-382h-73q-2 150 -86 217t-256 67h-76q-12 -109 -12 -195q0 -171 66.5 -252t214.5 -81h98v-70l-367 -10v-575h106q336 0 385 320h71l-82 -412h-50q-1 44 -38 44h-729v48q90 1 121 34t31 125v865q0 98 -34.5 127.5t-117.5 31.5v48h714q65 0 67 50zM545 1387
l-139 156q-46 51 -56 65t-10 32q0 24 17 43t43 19q20 0 32.5 -9t34.5 -54l114 -231z" />
    <glyph glyph-name="Iacute" unicode="&#xcd;" horiz-adv-x="619" 
d="M562 1231q-90 -2 -121 -34.5t-31 -123.5v-866q0 -154 152 -159v-48h-489v48q90 1 121 34.5t31 124.5v866q0 97 -34 126.5t-118 31.5v48h489v-48zM246 1420l128 238q24 44 57 44q27 0 44 -19t17 -40q0 -24 -35 -64l-169 -188z" />
    <glyph glyph-name="Icircumflex" unicode="&#xce;" horiz-adv-x="619" 
d="M562 1231q-90 -2 -121 -34.5t-31 -123.5v-866q0 -154 152 -159v-48h-489v48q90 1 121 34.5t31 124.5v866q0 97 -34 126.5t-118 31.5v48h489v-48zM317 1670l280 -242h-66l-214 126l-211 -126h-68z" />
    <glyph glyph-name="Idieresis" unicode="&#xcf;" horiz-adv-x="619" 
d="M562 1231q-90 -2 -121 -34.5t-31 -123.5v-866q0 -154 152 -159v-48h-489v48q90 1 121 34.5t31 124.5v866q0 97 -34 126.5t-118 31.5v48h489v-48zM134 1646q44 0 73 -29.5t29 -70.5q0 -43 -30 -72t-71 -29t-70.5 29.5t-29.5 71.5t30 71t69 29zM497 1646q45 0 74 -30
t29 -71q0 -42 -30 -71.5t-71 -29.5q-42 0 -71.5 29.5t-29.5 71.5q0 43 30 72t69 29z" />
    <glyph glyph-name="Igrave" unicode="&#xcc;" horiz-adv-x="619" 
d="M562 1231q-90 -2 -121 -34.5t-31 -123.5v-866q0 -154 152 -159v-48h-489v48q90 1 121 34.5t31 124.5v866q0 97 -34 126.5t-118 31.5v48h489v-48zM385 1387l-139 156q-46 51 -56 65t-10 32q0 24 17 43t43 19q20 0 32.5 -9t34.5 -54l114 -231z" />
    <glyph glyph-name="Oacute" unicode="&#xd3;" horiz-adv-x="1493" 
d="M798 1308q168 0 297 -66t226 -206t97 -336q0 -213 -120.5 -389.5t-281 -258t-336.5 -81.5q-252 0 -428 173.5t-176 430.5q0 297 220 515t502 218zM673 1215q-185 0 -306.5 -129.5t-121.5 -342.5q0 -313 182.5 -498t399.5 -185q173 0 297.5 130t124.5 334q0 191 -83 358.5
t-226 250t-267 82.5zM675 1420l128 238q24 44 57 44q27 0 44 -19t17 -40q0 -24 -35 -64l-169 -188z" />
    <glyph glyph-name="Ocircumflex" unicode="&#xd4;" horiz-adv-x="1493" 
d="M798 1308q168 0 297 -66t226 -206t97 -336q0 -213 -120.5 -389.5t-281 -258t-336.5 -81.5q-252 0 -428 173.5t-176 430.5q0 297 220 515t502 218zM673 1215q-185 0 -306.5 -129.5t-121.5 -342.5q0 -313 182.5 -498t399.5 -185q173 0 297.5 130t124.5 334q0 191 -83 358.5
t-226 250t-267 82.5zM747 1670l280 -242h-66l-214 126l-211 -126h-68z" />
    <glyph glyph-name="Ograve" unicode="&#xd2;" horiz-adv-x="1493" 
d="M798 1308q168 0 297 -66t226 -206t97 -336q0 -213 -120.5 -389.5t-281 -258t-336.5 -81.5q-252 0 -428 173.5t-176 430.5q0 297 220 515t502 218zM673 1215q-185 0 -306.5 -129.5t-121.5 -342.5q0 -313 182.5 -498t399.5 -185q173 0 297.5 130t124.5 334q0 191 -83 358.5
t-226 250t-267 82.5zM802 1387l-139 156q-46 51 -56 65t-10 32q0 24 17 43t43 19q20 0 32.5 -9t34.5 -54l114 -231z" />
    <glyph glyph-name="Uacute" unicode="&#xda;" horiz-adv-x="1387" 
d="M925 1279h441v-48q-187 -28 -187 -625q0 -207 -8.5 -295.5t-60.5 -166t-159 -125.5t-257 -48q-157 0 -267.5 46t-169 132.5t-58.5 212.5v710q0 98 -34.5 127.5t-117.5 31.5v48h489v-48q-89 -2 -120.5 -34.5t-31.5 -124.5v-702q0 -100 31 -165.5t114.5 -118t207.5 -52.5
t209.5 45t124 134.5t38.5 269.5q0 395 -41.5 567t-142.5 181v48zM647 1420l128 238q24 44 57 44q27 0 44 -19t17 -40q0 -24 -35 -64l-169 -188z" />
    <glyph glyph-name="Ucircumflex" unicode="&#xdb;" horiz-adv-x="1387" 
d="M925 1279h441v-48q-187 -28 -187 -625q0 -207 -8.5 -295.5t-60.5 -166t-159 -125.5t-257 -48q-157 0 -267.5 46t-169 132.5t-58.5 212.5v710q0 98 -34.5 127.5t-117.5 31.5v48h489v-48q-89 -2 -120.5 -34.5t-31.5 -124.5v-702q0 -100 31 -165.5t114.5 -118t207.5 -52.5
t209.5 45t124 134.5t38.5 269.5q0 395 -41.5 567t-142.5 181v48zM706 1670l280 -242h-66l-214 126l-211 -126h-68z" />
    <glyph glyph-name="Ugrave" unicode="&#xd9;" horiz-adv-x="1387" 
d="M925 1279h441v-48q-187 -28 -187 -625q0 -207 -8.5 -295.5t-60.5 -166t-159 -125.5t-257 -48q-157 0 -267.5 46t-169 132.5t-58.5 212.5v710q0 98 -34.5 127.5t-117.5 31.5v48h489v-48q-89 -2 -120.5 -34.5t-31.5 -124.5v-702q0 -100 31 -165.5t114.5 -118t207.5 -52.5
t209.5 45t124 134.5t38.5 269.5q0 395 -41.5 567t-142.5 181v48zM762 1387l-139 156q-46 51 -56 65t-10 32q0 24 17 43t43 19q20 0 32.5 -9t34.5 -54l114 -231z" />
    <glyph glyph-name="dotlessi" unicode="&#x131;" horiz-adv-x="555" 
d="M59 48q85 2 119.5 38t33.5 118v547q0 63 -72 63q-26 0 -57 -13q-16 -7 -24 -9v51l256 101h49v-740q0 -88 36.5 -121t116.5 -35v-48h-458v48z" />
    <glyph glyph-name="circumflex" unicode="&#x2c6;" horiz-adv-x="683" 
d="M340 1347l280 -242h-66l-214 126l-211 -126h-68z" />
    <glyph glyph-name="tilde" unicode="&#x2dc;" horiz-adv-x="683" 
d="M58 1169q79 139 157 139q42 0 146 -44q82 -33 109 -33q55 0 112 71l37 -23q-86 -136 -165 -136q-30 0 -123 34q-99 38 -132 38q-49 0 -105 -67z" />
    <glyph glyph-name="macron" unicode="&#xaf;" horiz-adv-x="683" 
d="M82 1276h521v-108h-521v108z" />
    <glyph glyph-name="macron" unicode="&#x2c9;" horiz-adv-x="683" 
d="M82 1276h521v-108h-521v108z" />
    <glyph glyph-name="breve" unicode="&#x2d8;" horiz-adv-x="683" 
d="M78 1335h43q59 -122 215 -122q151 0 217 122h44q-66 -221 -259 -221q-203 0 -260 221z" />
    <glyph glyph-name="dotaccent" unicode="&#x2d9;" horiz-adv-x="683" 
d="M329 1322q44 0 73 -29.5t29 -70.5q0 -43 -30 -72t-71 -29t-70.5 29.5t-29.5 71.5t30 71t69 29z" />
    <glyph glyph-name="ring" unicode="&#x2da;" horiz-adv-x="683" 
d="M338 1375q66 0 109.5 -44.5t43.5 -105.5t-44 -105.5t-106 -44.5q-63 0 -106.5 44.5t-43.5 105.5q0 65 45 107.5t102 42.5zM343 1318q-41 0 -67.5 -27.5t-26.5 -64.5q0 -38 27 -65t65 -27t65 27t27 65q0 40 -28 66t-62 26z" />
    <glyph glyph-name="cedilla" unicode="&#xb8;" horiz-adv-x="683" 
d="M278 23h54v-135q25 2 37 2q87 0 130.5 -27.5t43.5 -82.5q0 -63 -55.5 -102.5t-126.5 -39.5q-56 0 -144 25v55q81 -29 128 -29q35 0 60.5 20t25.5 52q0 33 -27 55.5t-72 22.5h-54v184z" />
    <glyph glyph-name="hungarumlaut" unicode="&#x2dd;" horiz-adv-x="683" 
d="M173 1097l128 238q24 44 57 44q27 0 44 -19t17 -40q0 -24 -35 -64l-169 -188zM390 1097l128 238q24 44 57 44q27 0 44 -19t17 -40q0 -24 -35 -64l-169 -188z" />
    <glyph glyph-name="ogonek" unicode="&#x2db;" horiz-adv-x="683" 
d="M273 22h69q-23 -117 -23 -163q0 -82 26.5 -123t79.5 -41q20 0 51 9l18 -44q-49 -23 -100 -23q-77 0 -130 42t-53 119q0 68 62 224z" />
    <glyph glyph-name="caron" unicode="&#x2c7;" horiz-adv-x="683" 
d="M56 1344h68l213 -132l214 132h66l-280 -242z" />
    <glyph glyph-name="Scaron" unicode="&#x160;" horiz-adv-x="917" 
d="M220 749q-46 44 -69.5 94t-23.5 105q0 144 132 252t309 108q89 0 237 -51v-314h-73q-8 131 -80 214t-176 83q-85 0 -140.5 -52.5t-55.5 -132.5q0 -77 55 -144q54 -67 261 -206q157 -105 212 -170q54 -66 54 -162q0 -157 -144.5 -279.5t-327.5 -122.5q-131 0 -294 63v360
h71q0 -152 88 -254t209 -102q111 0 175.5 65t64.5 165q0 87 -53 153q-53 65 -241 190q-103 68 -190 138zM247 1670h68l213 -132l214 132h66l-280 -242z" />
    <glyph glyph-name="scaron" unicode="&#x161;" horiz-adv-x="747" 
d="M150 308q8 -130 74.5 -202t159.5 -72q77 0 126 47t49 119q0 64 -37 108q-38 43 -149 113q-79 50 -144 93.5t-90 88.5q-26 45 -26 92q0 97 89.5 173t237.5 76q91 0 196 -40v-262h-72q-1 111 -62 178t-140 67q-56 0 -87.5 -35.5t-31.5 -83.5q0 -54 36 -93q35 -40 141 -106
q182 -115 228 -162q46 -48 46 -127q0 -125 -110.5 -217t-254.5 -92q-107 0 -247 60v277h68zM108 1347h68l213 -132l214 132h66l-280 -242z" />
    <glyph glyph-name="brokenbar" unicode="&#xa6;" horiz-adv-x="1045" 
d="M468 1416h109v-758h-109v758zM468 333h109v-758h-109v758z" />
    <glyph glyph-name="Eth" unicode="&#xd0;" horiz-adv-x="1451" 
d="M216 599h-152v81h152v393q0 97 -34 126.5t-118 31.5v48h786q264 0 395.5 -126t131.5 -379q0 -239 -114 -420.5t-286.5 -267.5t-388.5 -86h-524v48q90 1 121 34.5t31 124.5v392zM401 599v-441q155 -93 313 -93q213 0 344 161t131 418q0 258 -114 424t-384 166
q-175 0 -290 -77v-477h347v-81h-347z" />
    <glyph glyph-name="eth" unicode="&#xf0;" horiz-adv-x="1003" 
d="M680 1320l21 -49l-173 -78q216 -168 324 -340.5t108 -348.5q0 -221 -154.5 -378t-355.5 -157q-174 0 -290.5 117t-116.5 320q0 204 135.5 360t324.5 156q46 0 103 -16q-106 136 -211 228l-271 -120l-25 48l254 112q-103 98 -165 144l241 100l1 -46q-37 -18 -37 -48
t83 -94zM694 778q-112 83 -233 83q-148 0 -215.5 -97.5t-67.5 -237.5q0 -171 111 -318.5t266 -147.5q109 0 188 92t79 239q0 85 -32 182t-96 205z" />
    <glyph glyph-name="Yacute" unicode="&#xdd;" horiz-adv-x="1195" 
d="M35 1279h363v-48q-38 -1 -38 -27q0 -8 4 -18l314 -624q243 380 243 554q0 62 -36.5 88t-126.5 27v48h478v-48q-58 -1 -113 -52t-126 -172l-303 -516v-284q0 -154 152 -159v-48h-489v48q89 1 120.5 34.5t31.5 124.5v284l-250 502q-57 114 -108.5 175.5t-115.5 62.5v48z
M564 1420l128 238q24 44 57 44q27 0 44 -19t17 -40q0 -24 -35 -64l-169 -188z" />
    <glyph glyph-name="yacute" unicode="&#xfd;" horiz-adv-x="960" 
d="M-2 916h324v-48q-38 -2 -38 -24q0 -12 6 -25l248 -617l98 261q66 176 66 292q0 61 -33.5 87t-109.5 26v48h417v-48q-64 -4 -98.5 -41.5t-88.5 -164.5l-343 -890q-79 -205 -298 -224l-162 191l54 43q79 -98 176 -98q51 0 94 32t65 75.5t67 161.5l16 41l-273 679
q-44 110 -84 152t-103 43v48zM409 1097l128 238q24 44 57 44q27 0 44 -19t17 -40q0 -24 -35 -64l-169 -188z" />
    <glyph glyph-name="Thorn" unicode="&#xde;" horiz-adv-x="981" 
d="M396 1076v-95h296q173 0 246 -66.5t73 -162.5q0 -170 -154 -312t-309 -142q-35 0 -73 9.5t-79 27.5v-128q0 -154 152 -159v-48h-489v48q90 1 121 34t31 125v865q0 154 -152 159v48h489v-48q-88 -2 -120 -33.5t-32 -121.5zM396 868v-400q64 -47 121.5 -71t107.5 -24
q94 0 141 63t47 189q0 130 -60 218.5t-176 88.5q-93 0 -181 -64z" />
    <glyph glyph-name="thorn" unicode="&#xfe;" horiz-adv-x="1088" 
d="M188 -218v1409q0 59 -65 59q-37 0 -85 -19v48l341 137v-43q-41 -16 -41 -72v-684q142 195 231.5 261t180.5 66q120 0 206.5 -101.5t86.5 -269.5q0 -236 -156.5 -419t-351.5 -183q-45 0 -94.5 12t-102.5 35v-236q0 -88 36 -122.5t119 -35.5v-49h-457v49q84 1 118 37
t34 121zM338 146q70 -57 132 -85.5t116 -28.5q126 0 216 127t90 323q0 153 -58.5 250t-157.5 97q-130 0 -239.5 -169t-109.5 -388q0 -47 11 -126z" />
    <glyph glyph-name="multiply" unicode="&#xd7;" horiz-adv-x="1365" 
d="M682 719l418 419l75 -77l-417 -418l413 -414l-76 -76l-413 414l-413 -414l-76 76l413 414l-417 418l76 77z" />
    <glyph glyph-name="onesuperior" unicode="&#xb9;" horiz-adv-x="725" 
d="M168 1301l309 110v-30q-11 -2 -22 -18.5t-11 -32.5v-588q0 -28 18.5 -48.5t51.5 -20.5h37v-36h-348v36h31q77 0 77 69v467q0 77 -54 77q-32 0 -89 -20v35z" />
    <glyph glyph-name="twosuperior" unicode="&#xb2;" horiz-adv-x="725" 
d="M139 1324q168 88 303 88q87 0 130 -37.5t43 -113.5q0 -49 -29 -99.5t-144 -156.5l-254 -234h313q85 0 104 89h35l-48 -239h-33q-1 27 -18 27h-476v37q212 235 306 368.5t94 224.5q0 38 -24 65.5t-65 27.5q-131 0 -188 -222h-49v175z" />
    <glyph glyph-name="threesuperior" unicode="&#xb3;" horiz-adv-x="725" 
d="M141 1321q177 90 290 90q77 0 115 -30t38 -91q0 -72 -62 -122.5t-205 -105.5q181 0 250.5 -30t69.5 -123q0 -100 -96 -190.5t-246 -90.5q-89 0 -188 36v228h49q7 -88 60.5 -155t130.5 -67q68 0 109.5 45t41.5 119q0 192 -267 200v37q98 16 158 74t60 130q0 41 -24.5 66.5
t-62.5 25.5q-65 0 -116.5 -65t-55.5 -157h-49v176z" />
    <glyph glyph-name="onehalf" unicode="&#xbd;" horiz-adv-x="1749" 
d="M175 1301l309 112v-32q-11 -2 -22 -18.5t-11 -32.5v-587q0 -31 19.5 -50.5t50.5 -19.5h37v-36h-348v36h31q77 0 77 70v466q0 77 -54 77q-31 0 -89 -20v35zM1291 1413h86l-926 -1448h-88zM1162 673q168 84 304 84q87 0 130 -38t43 -114q0 -52 -32 -105.5t-189 -193.5
q-70 -62 -207 -191h313q88 0 104 89h35l-48 -239h-33q-1 28 -17 28h-477v36q222 246 311.5 375.5t89.5 216.5q0 38 -23.5 66.5t-66.5 28.5q-130 0 -188 -223h-49v180z" />
    <glyph glyph-name="onequarter" unicode="&#xbc;" horiz-adv-x="1749" 
d="M175 1301l309 112v-32q-11 -2 -22 -19t-11 -32v-588q0 -30 19.5 -49.5t50.5 -19.5h37v-36h-348v36h31q77 0 77 69v467q0 77 -54 77q-32 0 -89 -20v35zM1291 1413h86l-926 -1445h-88zM1499 757h52v-489h113v-68h-113v-104q0 -76 66 -76h23v-35h-331v35h30q79 0 79 76v104
h-340v36l219 253l9 12q136 165 193 256zM1418 544q-109 -96 -257 -276h257v276z" />
    <glyph glyph-name="threequarters" unicode="&#xbe;" horiz-adv-x="1749" 
d="M1314 1413h86l-924 -1445h-90zM148 1321q177 90 290 90q77 0 115 -30t38 -91q0 -71 -62 -123t-205 -105q180 0 250 -30t70 -123q0 -100 -96.5 -190.5t-245.5 -90.5q-90 0 -188 36v228h49q7 -88 60.5 -155t130.5 -67q68 0 109.5 45t41.5 119q0 192 -267 200v37
q99 16 158.5 74.5t59.5 129.5q0 41 -24 66.5t-63 25.5q-65 0 -116.5 -65t-55.5 -157h-49v176zM1499 757h52v-489h114v-68h-114v-104q0 -76 66 -76h23v-35h-326v35h26q78 0 78 76v104h-340v36l219 253q110 126 202 268zM1418 544q-111 -98 -257 -276h257v276z" />
    </font>
</defs>
</svg>
